<svg width="232" height="420" viewBox="0 0 232 420" fill="none" xmlns="http://www.w3.org/2000/svg">
<path d="M231.08 26.19L222.58 26.1L213 28.52C213 28.52 197.66 30.28 195.7 32.13L173.19 53.4L146.74 68.74L158.37 86.74L184.64 68.67L205.64 38.52C205.64 38.52 211.24 43 214.74 42C216.922 41.2922 219.182 40.849 221.47 40.68C222.11 40.68 229.73 39.22 229.73 39.22C229.717 38.83 229.581 38.4541 229.342 38.1454C229.104 37.8367 228.774 37.6109 228.4 37.5C227 36.94 220.58 37.03 220.19 36.97C219.771 36.8885 219.375 36.7165 219.03 36.4661C218.684 36.2156 218.398 35.8927 218.19 35.52C218.19 35.46 218.19 35.41 218.19 35.35C218.185 35.3001 218.185 35.2499 218.19 35.2C218.093 34.4732 218.127 33.7349 218.29 33.02L218.17 34.83L220.96 32.35H226.42L228.66 35.35C228.66 35.35 230.5 35.11 230.24 34.04C229.582 32.5715 228.792 31.1658 227.88 29.84L224.61 29.08L224.79 28.92C226.59 28.92 230.47 28.85 231.37 28.3C232.88 27.37 231.08 26.19 231.08 26.19Z" fill="#AA6550"/>
<path d="M178.86 64.84C177.699 64.0659 176.783 62.9766 176.22 61.7C175.503 60.4928 175.156 59.1023 175.22 57.7C175.38 57.7 175.66 59.48 176.67 61.45C177.68 63.42 179 64.72 178.86 64.84Z" fill="#723C31"/>
<path d="M147.68 30.86C147.77 30.11 147.77 29.16 147.09 28.86C146.832 28.7485 146.551 28.7005 146.27 28.72C145.031 28.703 143.793 28.7967 142.57 29C142.198 29.0797 141.812 29.0797 141.44 29C141.01 28.89 140.66 28.56 140.23 28.44C138.57 27.97 137.04 30.7 135.52 29.89C134.33 29.26 134.87 27.31 134.01 26.28C133.28 25.4 131.85 25.53 130.95 24.82C130.471 24.3213 130.058 23.7635 129.72 23.16C129.07 22.29 128.05 21.66 127.72 20.63C127.603 20.0569 127.536 19.4747 127.52 18.89C127.416 18.5796 127.253 18.2927 127.038 18.0456C126.824 17.7985 126.563 17.5961 126.27 17.45L126.99 17.51C127.79 17.51 128.84 17.75 128.87 18.51C129.168 18.2515 129.536 18.087 129.928 18.0372C130.319 17.9873 130.717 18.0544 131.07 18.23C131.769 18.5961 132.527 18.8332 133.31 18.93C133.76 18.93 134.21 18.77 134.66 18.8C135.117 18.8926 135.55 19.0757 135.935 19.3385C136.319 19.6012 136.648 19.9384 136.9 20.33C137.44 19.48 138.7 19.52 139.64 19.88C140.52 20.3777 141.501 20.6716 142.51 20.74C143.51 20.65 144.41 19.36 143.7 18.65C142.18 17.71 139.88 18.65 138.61 17.41C138.27 17.08 138.02 16.6 137.55 16.5C137.31 16.5 137.06 16.5 136.82 16.5C136.12 16.41 135.71 15.6 135.02 15.44C134.33 15.28 133.83 15.68 133.26 15.53C132.51 15.32 132.16 14.29 131.39 14.19C130.92 14.13 130.48 14.45 130 14.51C128.76 14.68 127.83 13.11 126.57 13.16C125.76 13.16 125.07 13.9 124.27 13.85C123.686 13.7432 123.154 13.4439 122.76 13C122.012 12.3438 121.152 11.8288 120.22 11.48C118.877 10.9852 117.45 10.7609 116.02 10.82C116.064 10.7106 116.114 10.6038 116.17 10.5C116.29 10.3469 116.441 10.2212 116.614 10.1315C116.786 10.0418 116.976 9.99017 117.17 9.98001C119.695 9.46421 122.277 9.27599 124.85 9.42001C125.396 9.51915 125.96 9.41985 126.44 9.14001C126.81 8.85001 127.02 8.31002 127.44 8.25002C127.86 8.19002 128.11 8.48001 128.44 8.57001C129.61 8.87001 130.69 7.15002 131.79 7.63002C132.1 7.77002 132.34 8.06002 132.67 8.08002C133.16 8.08002 133.45 7.56002 133.87 7.31002C134.521 7.0763 135.237 7.10136 135.87 7.38002C136.54 7.53002 137.43 7.45002 137.65 6.81002C137.701 6.53142 137.657 6.24372 137.524 5.99334C137.392 5.74296 137.179 5.54451 136.92 5.43002C136.294 5.06979 135.554 4.95908 134.85 5.12001C134.492 5.25631 134.113 5.3307 133.73 5.34002C133.12 5.27002 132.66 4.68001 132.04 4.60001C131.04 4.49001 130.18 5.78002 129.24 5.43002C128.87 5.29002 128.61 4.92002 128.24 4.81002C127.16 4.50002 126.24 6.47001 125.24 5.92001C124.87 5.71001 124.71 5.20002 124.3 5.09002C123.5 4.87002 123.3 6.26002 122.55 6.65002C121.8 7.04002 120.93 6.16001 120.04 6.10001C118.67 6.01001 117.77 7.97002 116.41 7.79002C115.973 7.66961 115.553 7.49491 115.16 7.27002C114.7 7.09501 114.198 7.06149 113.719 7.17374C113.239 7.28599 112.805 7.5389 112.47 7.90002C112.25 8.22628 111.984 8.51925 111.68 8.77002C110.85 9.28002 109.76 8.54002 108.82 8.77002C107.51 9.09002 107.09 11.04 105.76 11.25C105.335 11.2778 104.908 11.2304 104.5 11.11C104.085 11.05 103.665 11.05 103.25 11.11C103.397 9.32294 104.169 7.64477 105.43 6.37001C106.336 5.53081 107.344 4.80852 108.43 4.22002C108.804 3.97394 109.207 3.77572 109.63 3.63002C109.942 3.55493 110.26 3.50477 110.58 3.48001C111.534 3.35952 112.477 3.16222 113.4 2.89001C113.702 2.81459 113.989 2.68956 114.25 2.52002C114.432 2.38289 114.578 2.20347 114.674 1.99731C114.771 1.79116 114.816 1.5645 114.806 1.33699C114.795 1.10948 114.729 0.887997 114.613 0.691746C114.498 0.495495 114.336 0.330406 114.142 0.210796C113.949 0.0911867 113.728 0.0206715 113.501 0.00536342C113.274 -0.00994463 113.046 0.0304179 112.838 0.122951C112.63 0.215485 112.448 0.357393 112.307 0.536369C112.166 0.715346 112.071 0.925987 112.03 1.15002C111.951 0.993348 111.838 0.856295 111.699 0.748844C111.56 0.641393 111.399 0.566251 111.228 0.528889C111.056 0.491527 110.879 0.492884 110.708 0.532867C110.537 0.572851 110.377 0.65045 110.24 0.760014C109.94 1.05001 109.79 1.50002 109.42 1.70002C109.05 1.90002 108.42 1.65002 107.82 1.59002C107.548 1.57747 107.277 1.62464 107.026 1.7282C106.774 1.83176 106.549 1.9892 106.365 2.18941C106.181 2.38963 106.043 2.62776 105.961 2.88703C105.879 3.1463 105.855 3.42039 105.89 3.69001C105.719 3.58325 105.527 3.51241 105.328 3.4818C105.128 3.45119 104.925 3.46145 104.729 3.51195C104.534 3.56245 104.351 3.65214 104.191 3.77557C104.031 3.89901 103.898 4.05362 103.8 4.23001C103.621 4.60148 103.546 5.01498 103.585 5.42571C103.624 5.83644 103.774 6.22871 104.02 6.56002C103.799 6.46884 103.562 6.4224 103.323 6.42339C103.083 6.42437 102.847 6.47275 102.626 6.56574C102.406 6.65873 102.206 6.79448 102.039 6.96514C101.871 7.1358 101.739 7.33799 101.65 7.56002C101.44 8.12002 101.51 8.80002 101.11 9.25002C100.942 9.40027 100.765 9.54051 100.58 9.67001C99.67 10.39 99.68 11.67 100.02 12.86C99.62 13.3231 99.3143 13.8598 99.12 14.44H98.93C98.1452 14.1706 97.2969 14.1468 96.4982 14.372C95.6996 14.5971 94.9886 15.0604 94.46 15.7C94.0962 16.2099 93.7022 16.6974 93.28 17.16C92.39 17.96 91.09 18.08 90.37 19.06C90.02 19.53 89.84 20.17 89.37 20.53C88.9773 20.7541 88.5523 20.916 88.11 21.01C87.5725 21.265 87.123 21.6739 86.8185 22.185C86.5141 22.696 86.3684 23.286 86.4 23.88V23.88C86.4023 24.2691 86.484 24.6536 86.64 25.01C86.599 25.3466 86.4565 25.6628 86.2314 25.9165C86.0063 26.1701 85.7094 26.3492 85.38 26.43C84.76 26.55 84.03 26.33 83.57 26.75C83.11 27.17 83.42 28.37 82.96 29.04C82.38 29.89 80.81 29.46 80.23 30.31C79.65 31.16 80.23 32.4 79.33 32.64C79.14 32.64 78.92 32.64 78.77 32.78C78.62 32.92 78.7 33.45 78.63 33.78C78.48 34.55 77.2 34.43 76.78 35.09C76.46 35.58 76.78 36.21 76.93 36.78C77.08 37.35 76.77 38.18 76.21 38.04C76.75 38.14 77 38.79 77.04 39.35C76.9918 39.9051 77.0992 40.4625 77.35 40.96C77.504 41.1242 77.6476 41.2979 77.78 41.48C77.9318 41.8259 77.9703 42.2109 77.89 42.58C77.78 43.48 77.68 44.39 77.57 45.29C77.46 46.19 77.72 47.37 78.57 47.29C78.86 47.29 79.14 47.04 79.42 47.12C79.7 47.2 79.82 47.49 80.08 47.57C80.68 47.76 80.87 46.79 80.78 46.17C80.57 44.6772 80.7598 43.1555 81.33 41.76C81.518 41.3813 81.6494 40.9769 81.72 40.56C81.648 39.8128 81.473 39.0792 81.2 38.38C80.88 36.84 81.81 35.38 82.69 34.04C83.3357 33.0287 84.1124 32.1074 85 31.3C85.5221 30.8828 86.0699 30.4987 86.64 30.15C86.2562 30.7292 86.0446 31.4054 86.03 32.1C86.0856 32.3638 86.0856 32.6362 86.03 32.9C85.9174 33.0962 85.7508 33.2559 85.55 33.36C84.55 34.03 83.6 35.36 84.04 36.63C84.21 37.08 84.53 37.45 84.67 37.91C84.7556 38.4696 84.8057 39.0341 84.82 39.6C84.8906 39.9426 84.9944 40.2776 85.13 40.6L85.65 41.89C86.0532 43.0917 86.6772 44.2075 87.49 45.18C87.7503 45.3965 87.9616 45.6657 88.11 45.97C88.24 46.32 88.18 46.72 88.28 47.08C88.3992 47.3596 88.5769 47.6105 88.8011 47.8158C89.0254 48.021 89.2909 48.1759 89.58 48.27L94.63 50.64C94.9816 50.8328 95.3702 50.9487 95.77 50.98C96.13 50.98 96.47 50.82 96.82 50.79C97.88 50.69 98.82 51.69 99.87 51.79C100.336 51.8079 100.796 51.6743 101.18 51.4093C101.563 51.1444 101.851 50.7622 102 50.32L101.2 35.07L102.12 29.6L105.63 24.81L121.63 18.48L129.63 29.63C131.174 30.7128 132.855 31.5838 134.63 32.22C135.054 32.4184 135.527 32.488 135.99 32.42C136.51 32.28 136.94 31.82 137.48 31.85C138.02 31.88 138.31 32.24 138.75 32.18C139.19 32.12 139.57 31.51 140.08 31.52C140.329 31.5646 140.571 31.6419 140.8 31.75C141.352 31.7935 141.904 31.6753 142.39 31.41C144.39 30.76 146.39 31.95 148.1 33.09C148.42 32.9366 148.692 32.6975 148.884 32.3991C149.076 32.1008 149.182 31.7549 149.19 31.4C149.13 30.69 148 30.25 147.68 30.86Z" fill="#263238"/>
<path d="M153.26 42.0501C152.88 41.2201 151.64 41.5901 150.87 42.0501C151.12 41.5401 150.28 41.1401 149.76 41.3701C149.24 41.6001 148.83 42.1201 148.26 42.1601C148.017 42.1696 147.773 42.1392 147.54 42.0701C146.693 41.9214 145.822 42.0887 145.09 42.5401C144.59 42.8501 144 43.3001 143.5 43.0001C143 42.7001 143.05 42.1801 142.71 41.8601C141.98 41.1701 140.71 42.1401 139.81 41.7301C138.91 41.3201 138.74 39.6401 137.71 39.6101C137.04 39.6101 136.57 40.3801 135.9 40.4401C135.05 40.5201 134.57 39.4401 134.53 38.5901C134.49 37.7401 134.53 36.7101 133.85 36.1901L131.4 40.7101C131.477 41.0883 131.654 41.439 131.913 41.7257C132.171 42.0124 132.502 42.2245 132.87 42.3401C133.176 42.3836 133.468 42.5002 133.72 42.6801C133.95 42.9101 133.98 43.2701 134.15 43.5401C134.352 43.7754 134.607 43.959 134.894 44.0756C135.181 44.1921 135.491 44.2383 135.8 44.2101C136.8 44.2101 137.89 44.2701 138.48 45.0401C138.618 45.2747 138.782 45.4928 138.97 45.6901C139.197 45.8036 139.447 45.8627 139.7 45.8627C139.953 45.8627 140.203 45.8036 140.43 45.6901C141.668 45.2881 142.94 45.0003 144.23 44.8301C144.721 44.725 145.229 44.725 145.72 44.8301C146.27 44.9901 146.79 45.4101 147.35 45.2601C147.686 45.1137 147.984 44.8911 148.22 44.6101C148.83 44.0351 149.615 43.6827 150.45 43.6101C151.094 43.6309 151.737 43.5806 152.37 43.4601C153 43.3101 153.52 42.6401 153.26 42.0501Z" fill="#263238"/>
<path d="M100.64 46C100.47 45.93 93.74 44.1 94.09 50.92C94.44 57.74 101.21 56 101.21 55.8C101.21 55.6 100.64 46 100.64 46Z" fill="#AA6550"/>
<path d="M99 53.3C99 53.3 98.88 53.39 98.69 53.49C98.4129 53.6267 98.093 53.6483 97.8 53.55C97.348 53.2891 96.972 52.9148 96.7089 52.4641C96.4458 52.0134 96.3049 51.5018 96.3 50.98C96.261 50.3954 96.3462 49.8092 96.55 49.26C96.6 49.0369 96.7035 48.8293 96.8516 48.6551C96.9996 48.4808 97.1879 48.3453 97.4 48.26C97.5351 48.2192 97.6801 48.2256 97.811 48.2784C97.9419 48.3311 98.0509 48.4269 98.12 48.55C98.22 48.74 98.18 48.88 98.22 48.89C98.26 48.9 98.36 48.77 98.29 48.49C98.247 48.3196 98.1441 48.1705 98 48.07C97.8061 47.9405 97.5698 47.8904 97.34 47.93C97.0623 47.9991 96.807 48.1384 96.5987 48.3345C96.3903 48.5306 96.2358 48.777 96.15 49.05C95.8828 49.6562 95.7727 50.32 95.83 50.98C95.8267 51.5889 96.0034 52.1852 96.3379 52.694C96.6723 53.2029 97.1497 53.6015 97.71 53.84C97.8965 53.8833 98.0904 53.8842 98.2773 53.8427C98.4642 53.8012 98.6394 53.7182 98.79 53.6C99 53.46 99 53.31 99 53.3Z" fill="#723C31"/>
<path d="M113.79 14.84C113.79 14.84 95.7 16.23 95 28.94C94.3 41.65 100.72 48.94 100.72 48.94L104.88 26.94L116.76 21.34L127.26 21.22C127.26 21.22 125.05 14.7 113.79 14.84Z" fill="#226F54"/>
<path d="M135.74 58.68C135.74 53.85 134.84 43.92 133.95 34.94C133.488 30.2837 131.291 25.9719 127.794 22.8625C124.297 19.7532 119.758 18.0743 115.08 18.16H114.08C103.7 18.95 98.58 28.22 99.66 38.58L101.18 80.75L126.24 88.32L125.81 70.39C125.81 70.39 135.8 68.67 135.74 58.68Z" fill="#AA6550"/>
<path d="M125.85 70.4001C121.237 70.5723 116.677 69.3678 112.75 66.9401C112.75 66.9401 115.97 74.0701 125.92 72.9401L125.85 70.4001Z" fill="#723C31"/>
<path d="M131.28 42.16C131.291 42.5317 131.156 42.8928 130.903 43.1658C130.651 43.4387 130.301 43.6018 129.93 43.62C129.749 43.6378 129.566 43.6191 129.392 43.565C129.219 43.5109 129.058 43.4225 128.919 43.305C128.78 43.1875 128.666 43.0434 128.584 42.881C128.501 42.7187 128.452 42.5415 128.44 42.36C128.429 41.99 128.563 41.6303 128.813 41.3576C129.063 41.0849 129.41 40.9207 129.78 40.9C129.962 40.8808 130.146 40.8984 130.321 40.9518C130.496 41.0053 130.658 41.0935 130.798 41.2111C130.938 41.3287 131.053 41.4734 131.136 41.6364C131.218 41.7995 131.268 41.9776 131.28 42.16Z" fill="#263238"/>
<path d="M132 39.34C131.83 39.52 130.73 38.74 129.2 38.78C127.67 38.82 126.55 39.6 126.38 39.41C126.21 39.22 126.47 38.99 126.95 38.63C127.607 38.1528 128.398 37.894 129.21 37.89C130.006 37.8689 130.788 38.1038 131.44 38.56C132 38.92 132.12 39.25 132 39.34Z" fill="#263238"/>
<path d="M116.16 42.7501C116.171 43.1217 116.036 43.4828 115.783 43.7558C115.531 44.0288 115.181 44.1919 114.81 44.2101C114.452 44.2464 114.094 44.1395 113.815 43.9128C113.536 43.686 113.358 43.3578 113.32 43.0001C113.309 42.6274 113.444 42.2652 113.696 41.9906C113.948 41.716 114.298 41.5508 114.67 41.5301C114.848 41.5121 115.028 41.5294 115.199 41.5811C115.37 41.6327 115.53 41.7176 115.668 41.8309C115.807 41.9443 115.921 42.0838 116.006 42.2415C116.09 42.3992 116.142 42.572 116.16 42.7501V42.7501Z" fill="#263238"/>
<path d="M116.72 39.19C116.57 39.39 115.4 38.74 113.87 38.93C112.34 39.12 111.33 40.04 111.14 39.87C110.95 39.7 111.19 39.44 111.63 39.03C112.228 38.4791 112.983 38.1294 113.79 38.03C114.58 37.9222 115.383 38.0731 116.08 38.46C116.6 38.78 116.8 39.09 116.72 39.19Z" fill="#263238"/>
<path d="M122.59 51.71C123.392 51.4401 124.226 51.2754 125.07 51.22C125.46 51.22 125.83 51.08 125.89 50.81C125.919 50.4069 125.821 50.0048 125.61 49.66L124.4 46.66C122.71 42.44 121.48 38.97 121.65 38.9C121.82 38.83 123.33 42.2 125.02 46.42L126.18 49.42C126.437 49.8862 126.518 50.4289 126.41 50.95C126.356 51.0891 126.271 51.2144 126.162 51.3165C126.053 51.4186 125.922 51.4949 125.78 51.54C125.562 51.6039 125.337 51.6376 125.11 51.64C124.276 51.7707 123.43 51.7943 122.59 51.71V51.71Z" fill="#263238"/>
<path d="M118.09 52.86C118.34 52.86 118.37 54.5 119.82 55.66C121.27 56.82 123.04 56.6 123.06 56.83C123.08 57.06 122.67 57.16 121.92 57.2C120.943 57.2331 119.986 56.9177 119.22 56.31C118.481 55.7325 117.997 54.8893 117.87 53.96C117.8 53.27 118 52.85 118.09 52.86Z" fill="#263238"/>
<path d="M116.81 32.5601C116.67 32.9801 115.13 32.8101 113.33 33.0601C111.53 33.3101 110.09 33.8301 109.84 33.4601C109.73 33.2801 109.98 32.8801 110.56 32.4601C111.323 31.9235 112.205 31.5804 113.13 31.4601C114.052 31.3331 114.991 31.4256 115.87 31.7301C116.53 32.0001 116.87 32.3601 116.81 32.5601Z" fill="#263238"/>
<path d="M131.25 35.4301C130.98 35.7801 129.92 35.4301 128.64 35.4301C127.36 35.4301 126.3 35.7 126.05 35.34C125.93 35.17 126.05 34.8201 126.56 34.4801C127.18 34.0656 127.909 33.8444 128.655 33.8444C129.401 33.8444 130.13 34.0656 130.75 34.4801C131.21 34.9001 131.36 35.2601 131.25 35.4301Z" fill="#263238"/>
<path d="M122.38 17.09C118.85 15.7 115.27 16.44 111.52 16.99C108.625 17.346 105.87 18.4411 103.52 20.17C99.72 22.97 97.84 27.44 97.63 32.17C97.4259 36.7061 97.9251 41.2466 99.11 45.63L99.48 45.54C99.1488 46.6741 99.1315 47.8768 99.43 49.02C99.6016 49.5802 99.9849 50.0513 100.498 50.3333C101.012 50.6153 101.615 50.6859 102.18 50.53C103.44 49.97 103.48 48.24 103.37 46.87C102.98 42.2033 103.11 37.5077 103.76 32.87C104.06 30.74 104.57 28.44 106.24 27.09C107.73 25.89 109.78 25.73 111.65 25.35C114.79 24.71 117.74 23.35 120.89 22.77C124.04 22.19 128.05 22.85 130.08 25.32C129.35 21.58 125.92 18.48 122.38 17.09Z" fill="#263238"/>
<path d="M108.36 69.8701C108.24 69.1201 107.52 68.6201 106.9 68.1801C105.16 66.9694 103.612 65.5028 102.31 63.8301C102.116 63.5486 101.88 63.2989 101.61 63.0901C101.344 62.9137 101.054 62.7757 100.75 62.6801C98.3473 61.7256 96.3575 59.9554 95.13 57.6801C94.1045 55.4368 93.4655 53.0363 93.24 50.5801C93.15 49.9501 93.06 49.3201 92.96 48.6901C92.64 46.5101 92.17 44.0801 90.35 42.8301L87.42 43.3601C86.47 43.9101 86.8 45.3601 87.42 46.2701C88.04 47.1801 88.89 48.1401 88.6 49.2001C88.4313 49.5493 88.3231 49.9246 88.28 50.3101C88.35 51.3101 89.98 51.5101 90.08 52.4801C90.08 53.0601 89.58 53.5601 89.62 54.1401C89.66 54.7201 90.45 55.1401 90.81 55.7601C91.32 56.5801 90.91 57.7601 91.36 58.5801C91.81 59.4001 93.36 59.8501 93.59 60.9201C93.75 61.6201 93.3 62.3301 93.33 63.0501C93.3827 63.5221 93.5399 63.9764 93.79 64.3801C94.27 65.3001 94.85 66.3101 95.86 66.5601C96.38 66.6901 96.94 66.5601 97.47 66.7101C98 66.8601 98.57 67.2201 99.15 67.3801C99.73 67.5401 100.51 67.3201 100.62 66.7301C101.43 66.9701 101.8 67.8601 102.23 68.5801C102.66 69.3001 103.58 69.9701 104.23 69.5101C104.341 70.0112 104.585 70.4729 104.937 70.8462C105.289 71.2195 105.736 71.4904 106.23 71.6301C106.491 71.6967 106.764 71.7008 107.027 71.6419C107.29 71.5831 107.535 71.463 107.742 71.2915C107.95 71.1199 108.114 70.9018 108.221 70.6548C108.329 70.4078 108.376 70.1389 108.36 69.8701V69.8701Z" fill="#263238"/>
<path d="M109.77 57.69C108.77 56.94 107.48 56.31 107.16 55.09C107.105 54.7482 107.014 54.4131 106.89 54.09C106.62 53.59 106 53.38 105.67 52.92C105.487 52.583 105.339 52.2277 105.23 51.86C105.048 51.4674 104.755 51.1369 104.387 50.9094C104.019 50.6818 103.592 50.5673 103.16 50.58C103.18 50.3576 103.152 50.1335 103.08 49.9222C103.008 49.711 102.892 49.5171 102.741 49.3532C102.589 49.1894 102.405 49.059 102.2 48.9706C101.995 48.8822 101.773 48.8377 101.55 48.84C101.7 46.71 100.42 44.78 99.19 43.04L98.1 41.51C97.8962 41.2358 97.7219 40.9408 97.58 40.63C97.4733 40.3043 97.3964 39.9696 97.35 39.63C96.5897 36.7908 95.4884 34.0543 94.07 31.48L93.21 40.34C93.0399 41.2689 93.0399 42.221 93.21 43.15C93.3018 43.6178 93.5199 44.0515 93.8408 44.4041C94.1616 44.7566 94.5729 45.0146 95.03 45.15C95.3766 45.1663 95.7165 45.2512 96.03 45.4C96.65 45.83 96.35 46.78 96.42 47.53C96.56 49.28 98.87 50.13 99.25 51.84C99.52 53.09 98.8 54.77 99.88 55.46C100.19 55.66 100.58 55.7 100.88 55.87C101.58 56.24 101.88 57.1 102.35 57.71C102.82 58.32 104.09 58.49 104.27 57.71C104.71 58.6 105.98 58.64 106.75 59.27C107.091 59.5968 107.396 59.9588 107.66 60.35C108.42 61.29 109.98 61.83 110.77 60.93C111.56 60.03 110.77 58.45 109.77 57.69Z" fill="#263238"/>
<path d="M103 51.12C102.835 50.8414 102.707 50.5421 102.62 50.23L102.23 49.17C102.158 48.9674 102.054 48.7782 101.92 48.61C101.77 48.44 101.59 48.34 101.44 48.43L101.11 48.61L101.18 48.22C101.236 47.8204 101.148 47.4138 100.932 47.073C100.716 46.7323 100.385 46.4795 100 46.36C99.8581 46.298 99.7292 46.2098 99.62 46.1C99.5004 45.9676 99.4298 45.7982 99.42 45.62C99.4298 45.3784 99.4096 45.1366 99.36 44.9C99.2869 44.6833 99.1544 44.4916 98.9776 44.3466C98.8008 44.2016 98.5868 44.1092 98.36 44.08L98 44L98.25 43.65C98.63 43.13 98.19 42.35 97.87 41.57C97.7205 41.217 97.6293 40.8422 97.6 40.46C97.6031 40.124 97.5696 39.7887 97.5 39.46C97.4642 39.3288 97.396 39.2088 97.3016 39.1109C97.2073 39.0131 97.0898 38.9405 96.96 38.9C96.7805 38.828 96.6177 38.7198 96.4818 38.5821C96.3459 38.4445 96.2398 38.2804 96.17 38.1C96.0618 37.4923 96.0016 36.8771 95.99 36.26C95.88 35.77 95.5 35.33 95.17 35.48L94.91 35.6V35.31C94.8563 34.2816 94.5763 33.2777 94.09 32.37C93.73 31.73 93.47 31.37 93.5 31.37C93.53 31.37 93.86 31.62 94.28 32.25C94.8522 33.1538 95.1955 34.1836 95.28 35.25L95.01 35.08C95.1699 35.0185 95.3445 35.0057 95.5117 35.043C95.679 35.0804 95.8314 35.1663 95.95 35.29C96.1762 35.5211 96.3381 35.8072 96.42 36.12C96.4511 36.7163 96.5145 37.3105 96.61 37.9C96.6612 38.0214 96.7376 38.1305 96.8341 38.2202C96.9307 38.3098 97.0452 38.3779 97.17 38.42C97.3618 38.4919 97.5345 38.6068 97.6749 38.7559C97.8153 38.905 97.9197 39.0843 97.98 39.28C98.0647 39.6372 98.1083 40.0029 98.11 40.37C98.128 40.7152 98.2094 41.0542 98.35 41.37C98.49 41.75 98.69 42.12 98.81 42.55C98.894 42.7758 98.9242 43.0182 98.8981 43.2577C98.8721 43.4973 98.7906 43.7275 98.66 43.93L98.48 43.53C98.8008 43.5749 99.1024 43.7095 99.3501 43.9182C99.5977 44.127 99.7814 44.4014 99.88 44.71C99.9487 44.981 99.9723 45.2614 99.95 45.54C99.95 45.73 100.03 45.79 100.25 45.9C100.712 46.0729 101.098 46.4037 101.339 46.8338C101.581 47.2638 101.663 47.7655 101.57 48.25L101.31 48.05C101.396 48.0104 101.49 47.99 101.585 47.99C101.68 47.99 101.774 48.0104 101.86 48.05C101.996 48.1256 102.115 48.2276 102.21 48.35C102.364 48.5528 102.476 48.7839 102.54 49.03L102.84 50.12C102.95 50.4419 103.004 50.78 103 51.12Z" fill="#455A64"/>
<path d="M98.18 49.31C97.4299 48.9646 96.8022 48.3997 96.38 47.69C96.16 47.38 95.93 47.04 95.7 46.69C95.4126 46.2922 95.1929 45.8495 95.05 45.38C94.98 45.1 95.05 44.8 94.97 44.66C94.89 44.52 94.76 44.39 94.53 44.23C94.0306 43.8591 93.6909 43.3121 93.58 42.7C93.53 42.37 93.58 42.13 93.43 42.02C93.28 41.91 93.04 41.74 92.83 41.55C92.393 41.1991 92.0494 40.7457 91.83 40.23C91.6476 39.7723 91.5591 39.2826 91.57 38.79C91.57 38.42 91.28 38.22 91.04 37.87C90.6788 37.3677 90.4768 36.7685 90.46 36.15C90.46 35.72 90.54 35.5 90.57 35.5C90.6209 35.7065 90.6511 35.9175 90.66 36.13C90.7505 36.6854 90.9811 37.2085 91.33 37.65C91.44 37.79 91.57 37.9 91.72 38.07C91.8835 38.2648 91.9815 38.5063 92 38.76C92.0204 39.1886 92.1222 39.6095 92.3 40C92.4953 40.4326 92.7859 40.8155 93.15 41.12C93.3905 41.2782 93.6179 41.4554 93.83 41.65C93.9994 41.927 94.0894 42.2453 94.09 42.57C94.1831 43.0517 94.4501 43.4823 94.84 43.78C95.1107 43.9403 95.324 44.1817 95.45 44.47C95.53 44.83 95.45 45.04 95.52 45.24C95.641 45.6626 95.8265 46.064 96.07 46.43C96.29 46.8 96.49 47.15 96.69 47.43C97.1334 48.0971 97.6318 48.7259 98.18 49.31V49.31Z" fill="#455A64"/>
<path d="M89.79 34.3301C89.79 34.3301 89.52 34.1901 89.29 33.7501C89.147 33.477 89.0619 33.1775 89.04 32.8701C89.0076 32.6641 89.0318 32.4533 89.11 32.2601C89.146 32.1758 89.2074 32.1048 89.2856 32.0571C89.3638 32.0094 89.455 31.9873 89.5464 31.9939C89.6378 32.0005 89.7249 32.0355 89.7954 32.094C89.866 32.1524 89.9165 32.2315 89.94 32.3201L90.04 32.6801L89.65 32.5401C89.4023 32.4326 89.1901 32.2573 89.0379 32.0343C88.8858 31.8113 88.7998 31.5498 88.79 31.2801C88.7847 30.7277 88.9225 30.1834 89.19 29.7L89.24 29.9901C89.0374 29.7947 88.8892 29.55 88.81 29.2801C88.6483 28.6537 88.6483 27.9965 88.81 27.3701C88.866 27.0553 89.0001 26.7596 89.2 26.5101C89.3104 26.3841 89.4506 26.2878 89.6079 26.2302C89.7651 26.1725 89.9344 26.1553 90.1 26.1801L89.84 26.3601C89.9596 25.6315 90.2586 24.9442 90.71 24.3601C91.04 23.9501 91.3 23.7901 91.33 23.8201C90.7986 24.603 90.4375 25.4887 90.27 26.4201V26.6501H90.04C89.9533 26.6438 89.8665 26.6598 89.7877 26.6966C89.709 26.7333 89.6409 26.7896 89.59 26.8601C89.4508 27.0518 89.3615 27.2752 89.33 27.5101C89.2004 28.0524 89.2004 28.6177 89.33 29.1601C89.3837 29.3482 89.4834 29.52 89.62 29.6601L89.76 29.7901L89.68 29.95C89.4467 30.3594 89.3163 30.8192 89.3 31.2901C89.2977 31.4716 89.3449 31.6504 89.4365 31.8072C89.5281 31.964 89.6607 32.0929 89.82 32.1801L89.59 32.3901C89.59 32.5001 89.59 32.3901 89.47 32.4801C89.4214 32.6147 89.3977 32.757 89.4 32.9001C89.4006 33.1687 89.4445 33.4354 89.53 33.6901C89.66 34.0801 89.83 34.2901 89.79 34.3301Z" fill="#455A64"/>
<path d="M94.82 30.3C94.4004 29.7991 94.0965 29.2118 93.93 28.58C93.6882 27.8938 93.5239 27.1827 93.44 26.46C93.391 26.0251 93.3676 25.5877 93.37 25.15C93.3672 24.8917 93.4078 24.6348 93.49 24.39C93.5341 24.2331 93.6196 24.0909 93.7374 23.9783C93.8553 23.8657 94.0012 23.7869 94.16 23.75L94 24C93.9919 23.348 94.1178 22.7013 94.37 22.1C94.4611 21.8629 94.575 21.6351 94.71 21.42C94.7923 21.2759 94.9136 21.1581 95.06 21.08C95.1509 21.0275 95.2553 21.0031 95.36 21.01C95.4359 21.0146 95.5092 21.0393 95.5724 21.0814C95.6356 21.1236 95.6866 21.1817 95.72 21.25L95.24 21.43C95.0988 20.93 95.1048 20.3999 95.2573 19.9032C95.4099 19.4066 95.7025 18.9645 96.1 18.63C96.3485 18.3514 96.5024 18.0014 96.54 17.63C96.6307 17.2468 96.8324 16.899 97.12 16.63C97.5164 16.2535 98.0434 16.0456 98.59 16.05C98.96 16.05 99.14 16.17 99.13 16.19C99.12 16.21 98.93 16.19 98.6 16.19C98.1263 16.2573 97.6893 16.4828 97.36 16.83C97.1416 17.0647 96.9927 17.3556 96.93 17.67C96.93 17.84 96.86 18.04 96.8 18.26C96.7286 18.4935 96.6016 18.7063 96.43 18.88C96.1004 19.1612 95.859 19.5316 95.7349 19.9467C95.6107 20.3618 95.609 20.804 95.73 21.22L95.28 21.39C95.38 21.39 95.34 21.32 95.34 21.39C95.34 21.46 95.34 21.47 95.34 21.45C95.2783 21.4867 95.2267 21.5382 95.19 21.6C95.0781 21.7938 94.9779 21.9942 94.89 22.2C94.667 22.7426 94.5515 23.3234 94.55 23.91V24.15H94.34C94.09 24.15 93.94 24.66 93.94 25.06C93.94 25.46 93.94 25.92 93.94 26.31C94.0012 27.0089 94.1217 27.7014 94.3 28.38C94.55 29.62 94.88 30.27 94.82 30.3Z" fill="#455A64"/>
<path d="M110.43 8.89004C109.866 8.95366 109.312 9.0846 108.78 9.28004C107.504 9.90319 106.455 10.9103 105.78 12.16L105.66 12.38L105.43 12.25C105.145 12.0779 104.829 11.9625 104.5 11.91C103.622 11.8002 102.731 11.9755 101.96 12.41C101.304 12.7542 100.689 13.1737 100.13 13.66C99.7435 13.9639 99.4435 14.3639 99.26 14.82C99.14 15.14 99.16 15.35 99.12 15.35C99.08 15.35 99 15.15 99.12 14.77C99.2445 14.2411 99.5228 13.7609 99.92 13.39C100.475 12.85 101.097 12.3829 101.77 12C102.627 11.4892 103.632 11.2847 104.62 11.42C105.018 11.4779 105.399 11.6175 105.74 11.83L105.39 11.91C106.111 10.5917 107.267 9.56352 108.66 9.00004C109.212 8.73042 109.849 8.69086 110.43 8.89004V8.89004Z" fill="#455A64"/>
<path d="M78.15 149.7L60.62 136.17C60.62 136.17 42.4 160.27 39.84 165.65C37.69 170.16 22.37 192.9 17.5 200.09L4.07001 210.09L3.45 214.2L0.729996 220.69C0.729996 220.69 2.56 231.92 4.27 231.84C6.19 231.76 5.86 227.18 5.86 227.18C5.86 227.18 11.16 231.56 12.54 232.94C13.92 234.32 16.82 233.29 15.54 231.45C14.6876 230.244 13.7449 229.104 12.72 228.04C12.72 228.04 14.85 228.87 15.86 228.17C16.87 227.47 15.71 225.69 15.71 225.69L9.21001 223.69V216.85C9.21001 216.85 11.43 212.63 12.97 212.85C14.51 213.07 14.92 215.41 14.61 215.85C13.47 217.55 10.97 222.51 10.97 222.51C11.0311 222.744 11.1436 222.962 11.2993 223.148C11.455 223.333 11.6501 223.481 11.8704 223.582C12.0907 223.682 12.3305 223.733 12.5726 223.729C12.8147 223.725 13.053 223.667 13.27 223.56C14.97 222.76 19.75 216.62 19.75 216.62C19.75 216.62 26.43 211.89 27.35 210.45C28.02 209.39 28.28 206.11 28.35 204.45L69.42 165.17L78.15 149.7Z" fill="#AA6550"/>
<path d="M171.44 399.21V400.26C171.44 400.26 201.58 407.48 200.49 415.69L148.49 416.92L149.17 399.6C157 403 162.62 403 171.44 399.21Z" fill="#E0E0E0"/>
<path d="M148.52 416.92L148.59 412.76L199.85 413.11C200.129 413.472 200.33 413.889 200.44 414.333C200.551 414.777 200.567 415.239 200.49 415.69L148.52 416.92Z" fill="#263238"/>
<path d="M173.42 400.69C173.42 400.94 172.2 401.21 171.06 402.17C169.92 403.13 169.39 404.28 169.15 404.17C168.91 404.06 169.15 402.59 170.5 401.45C171.85 400.31 173.45 400.45 173.42 400.69Z" fill="#263238"/>
<path d="M179.11 402.25C179.2 402.49 178.16 403.06 177.44 404.25C176.72 405.44 176.61 406.58 176.35 406.6C176.09 406.62 175.76 405.21 176.69 403.77C177.62 402.33 179.08 402 179.11 402.25Z" fill="#263238"/>
<path d="M183 408.35C182.77 408.43 182.27 407.22 182.74 405.76C183.21 404.3 184.33 403.6 184.46 403.76C184.59 403.92 183.96 404.76 183.58 405.99C183.2 407.22 183.23 408.3 183 408.35Z" fill="#263238"/>
<path d="M148.71 416.4C148.5 416.903 148.457 417.459 148.587 417.988C148.716 418.517 149.012 418.991 149.43 419.34C149.827 419.676 150.326 419.87 150.846 419.89C151.366 419.91 151.878 419.755 152.3 419.45C153.07 418.85 153.56 417.71 154.53 417.68C155.34 417.68 155.9 418.44 156.53 418.99C157.97 420.32 160.64 420.29 161.67 418.62C161.869 418.174 162.128 417.757 162.44 417.38C163.29 416.6 164.67 417.16 165.53 417.93C166.39 418.7 167.19 419.71 168.33 419.82C169.47 419.93 170.67 418.92 171.63 418.06C172.59 417.2 173.98 416.42 175.08 417.06C175.77 417.47 176.08 418.29 176.65 418.83C178.05 420.11 180.36 419.29 181.76 418.01C182.214 417.492 182.777 417.082 183.41 416.81C184.75 416.4 186.02 417.49 187.15 418.33C187.858 418.916 188.699 419.318 189.6 419.5C190.049 419.587 190.513 419.555 190.946 419.408C191.38 419.261 191.767 419.003 192.07 418.66C192.33 418.34 192.48 417.96 192.72 417.66C193.05 417.228 193.511 416.916 194.034 416.769C194.558 416.623 195.114 416.652 195.62 416.85C196.89 417.37 197.89 418.98 199.2 418.58C200.26 418.25 200.48 416.86 200.47 415.75C200.505 415.399 200.421 415.047 200.23 414.75C200.044 414.583 199.821 414.463 199.579 414.402C199.336 414.341 199.083 414.34 198.84 414.4C195.96 414.63 193.08 414.96 190.22 415.4" fill="#263238"/>
<path d="M175 402.42C175 402.42 175.11 402.17 175.42 401.82C175.73 401.47 176.25 401.04 176.81 400.46C177.535 399.791 178.353 399.232 179.24 398.8C179.766 398.512 180.338 398.32 180.93 398.23C181.262 398.187 181.598 398.187 181.93 398.23C182.119 398.241 182.303 398.293 182.47 398.38C182.576 398.436 182.666 398.517 182.732 398.617C182.799 398.716 182.839 398.831 182.85 398.95C182.833 399.299 182.734 399.638 182.56 399.941C182.386 400.243 182.143 400.5 181.85 400.69C181.408 401.079 180.921 401.415 180.4 401.69C179.534 402.168 178.589 402.486 177.61 402.63C176.949 402.735 176.276 402.752 175.61 402.68C175.14 402.62 174.89 402.54 174.9 402.51C175.777 402.477 176.652 402.397 177.52 402.27C178.443 402.076 179.331 401.738 180.15 401.27C180.631 400.981 181.084 400.646 181.5 400.27C181.93 399.91 182.35 399.44 182.31 398.98C182.27 398.52 181.51 398.67 181.01 398.73C180.474 398.813 179.955 398.978 179.47 399.22C178.613 399.617 177.81 400.121 177.08 400.72C176.46 401.29 175.91 401.67 175.57 401.97C175.23 402.27 175 402.44 175 402.42Z" fill="#263238"/>
<path d="M175 402.75C174.746 401.987 174.575 401.199 174.49 400.4C174.291 399.531 174.24 398.635 174.34 397.75C174.425 397.203 174.641 396.685 174.97 396.24C175.149 395.975 175.39 395.759 175.673 395.611C175.956 395.463 176.271 395.387 176.59 395.39C176.776 395.408 176.953 395.477 177.101 395.59C177.25 395.703 177.364 395.856 177.43 396.03C177.525 396.32 177.566 396.625 177.55 396.93C177.541 397.457 177.484 397.983 177.38 398.5C177.18 399.371 176.842 400.205 176.38 400.97C176.015 401.703 175.463 402.327 174.78 402.78C174.71 402.72 175.39 402.08 176.06 400.78C176.445 400.031 176.718 399.229 176.87 398.4C176.963 397.912 177.01 397.417 177.01 396.92C177.01 396.4 176.91 395.92 176.5 395.92C176.27 395.926 176.044 395.987 175.842 396.099C175.64 396.21 175.468 396.368 175.34 396.56C175.059 396.942 174.867 397.383 174.78 397.85C174.663 398.683 174.663 399.527 174.78 400.36C174.94 401.146 175.014 401.948 175 402.75Z" fill="#263238"/>
<path d="M10.19 261.07C9.64706 259.517 9.49351 257.854 9.74283 256.227C9.99214 254.6 10.6367 253.06 11.62 251.74C12.2563 251.089 12.7382 250.303 13.03 249.44C13.16 248.82 13.03 248.18 13.12 247.56C13.21 246.94 13.62 246.26 14.24 246.24C14.86 246.22 15.18 246.64 15.68 246.78C16.87 247.12 17.87 245.78 18.28 244.65C18.69 243.52 19.08 242.06 20.28 241.65C21.48 241.24 22.56 241.94 23.59 241.51C24.62 241.08 24.94 239.79 25.22 238.7C25.5 237.61 26.13 236.35 27.22 236.31C27.88 236.31 28.5 236.73 29.22 236.7C30.52 236.63 31 235.02 31.53 233.84C32.3 232.1 34.33 230.69 36.07 231.45C36.404 231.662 36.7787 231.802 37.17 231.86C37.91 231.86 38.34 231.05 38.89 230.55C40.21 229.36 42.49 230.09 43.51 231.55C44.53 233.01 44.64 234.9 44.72 236.69" fill="#263238"/>
<path d="M28.56 257.67C25.3968 260.463 21.7953 262.717 17.9 264.34C16.6716 264.982 15.2685 265.21 13.9 264.99C13.0924 264.698 12.371 264.208 11.8015 263.565C11.232 262.922 10.8327 262.147 10.64 261.31C9.63999 258.01 10.78 254.37 12.74 251.58C14.8392 248.904 17.3346 246.563 20.14 244.64L33.21 234.64C34.7434 233.329 36.4926 232.293 38.38 231.58C39.3287 231.239 40.3502 231.151 41.3431 231.327C42.336 231.502 43.2657 231.934 44.04 232.58C45.75 234.22 45.88 236.98 45.31 239.31C44.74 241.64 43.6 243.8 43.16 246.15" fill="#E0E0E0"/>
<path d="M43.15 246.19C43.139 246.117 43.139 246.043 43.15 245.97C43.15 245.83 43.21 245.61 43.27 245.34C43.4709 244.547 43.7146 243.766 44 243C44.4642 241.78 44.8582 240.535 45.18 239.27C45.6095 237.616 45.5152 235.869 44.91 234.27C44.5222 233.379 43.8507 232.64 43 232.17C42.0535 231.686 40.9878 231.485 39.93 231.59C37.71 231.76 35.64 233.15 33.65 234.69C29.6 237.79 25.15 241.19 20.47 244.75C18.1521 246.398 16.0047 248.274 14.06 250.35C12.277 252.312 11.0876 254.739 10.63 257.35C10.3959 258.5 10.4264 259.688 10.7192 260.825C11.012 261.961 11.5594 263.016 12.32 263.91C12.6811 264.284 13.1198 264.575 13.6052 264.762C14.0907 264.948 14.6112 265.026 15.13 264.99C16.1145 264.889 17.0748 264.622 17.97 264.2C20.7725 263.039 23.4304 261.556 25.89 259.78C26.77 259.16 27.42 258.64 27.89 258.29C28.1071 258.097 28.3377 257.92 28.58 257.76C28.5374 257.823 28.487 257.88 28.43 257.93C28.3 258.05 28.14 258.19 27.96 258.37C27.53 258.75 26.89 259.29 26.03 259.95C23.5952 261.799 20.9419 263.34 18.13 264.54C17.1857 264.992 16.1711 265.279 15.13 265.39C14.5531 265.434 13.9737 265.352 13.4316 265.15C12.8895 264.948 12.3977 264.631 11.99 264.22C11.1703 263.282 10.5764 262.169 10.254 260.966C9.93152 259.763 9.88913 258.502 10.13 257.28C10.5887 254.588 11.8065 252.083 13.64 250.06C15.6024 247.949 17.7772 246.045 20.13 244.38L33.33 234.38C35.33 232.85 37.49 231.38 39.87 231.23C41.0062 231.13 42.1474 231.355 43.16 231.88C44.0835 232.398 44.8057 233.212 45.21 234.19C45.8295 235.864 45.9065 237.69 45.43 239.41C45.0824 240.678 44.6583 241.924 44.16 243.14C43.78 244.14 43.51 244.94 43.36 245.48C43.3044 245.721 43.2343 245.958 43.15 246.19V246.19Z" fill="#263238"/>
<path d="M24.07 259.49C22.8607 258.974 21.8211 258.129 21.07 257.05C20.1854 256.072 19.59 254.867 19.35 253.57C19.5 253.51 20.16 255.1 21.48 256.73C22.8 258.36 24.16 259.36 24.07 259.49Z" fill="#263238"/>
<path d="M26.69 256.31C25.6103 255.997 24.6777 255.309 24.06 254.37C23.3057 253.546 22.8604 252.486 22.8 251.37C22.95 251.37 23.38 252.71 24.47 254.08C25.56 255.45 26.77 256.18 26.69 256.31Z" fill="#263238"/>
<path d="M19.24 260.58C18.3306 260.155 17.5506 259.496 16.98 258.67C16.2769 257.954 15.7854 257.058 15.56 256.08C16.2234 256.786 16.8318 257.541 17.38 258.34C18.0653 259.03 18.6877 259.78 19.24 260.58V260.58Z" fill="#263238"/>
<path d="M26.56 253.82C26.8742 253.895 27.168 254.038 27.42 254.24C28.1629 254.723 28.7418 255.421 29.08 256.24C29.3108 256.832 29.3697 257.476 29.25 258.1C29.2214 258.288 29.164 258.47 29.08 258.64C29.0434 258.705 28.9931 258.761 28.9326 258.804C28.8722 258.847 28.803 258.876 28.73 258.89C28.5909 258.902 28.4521 258.863 28.34 258.78C28.0262 258.566 27.7464 258.307 27.51 258.01C26.51 256.81 26.3 255.12 25.82 253.6C25.57 252.83 25.21 252.09 25 251.3C24.7822 250.549 24.7822 249.751 25 249C25.14 248.66 25.26 248.2 25.82 248C25.9548 247.989 26.0891 248.026 26.199 248.105C26.3089 248.184 26.3872 248.299 26.42 248.43C26.48 248.6 26.52 248.75 26.57 248.91C26.7269 249.497 26.834 250.095 26.89 250.7C26.9644 251.569 26.9173 252.444 26.75 253.3C26.7163 253.622 26.6213 253.934 26.47 254.22C26.6001 253.064 26.6169 251.899 26.52 250.74C26.4423 250.161 26.3185 249.589 26.15 249.03C26.15 248.89 26.06 248.74 26.01 248.59C25.96 248.44 25.91 248.45 25.88 248.45C25.85 248.45 25.54 248.78 25.46 249.09C25.2876 249.777 25.3154 250.499 25.54 251.17C25.74 251.9 26.1 252.63 26.36 253.44C26.86 255.06 27.07 256.64 27.94 257.73C28.1426 257.986 28.378 258.215 28.64 258.41C28.78 258.47 28.64 258.48 28.75 258.41C28.8113 258.287 28.855 258.155 28.88 258.02C28.9948 257.474 28.9602 256.908 28.78 256.38C28.4964 255.594 28.0015 254.902 27.35 254.38C27.0762 254.209 26.8124 254.022 26.56 253.82Z" fill="#263238"/>
<path d="M43.52 243.68C43.52 243.68 43.52 243.4 43.52 242.92C43.4534 242.248 43.1889 241.611 42.76 241.09C42.124 240.318 41.2344 239.797 40.25 239.62C39.0302 239.412 37.7824 239.432 36.57 239.68C35.3634 239.998 34.2108 240.493 33.15 241.15C32.277 241.676 31.4882 242.33 30.81 243.09C30.1766 243.792 29.6108 244.552 29.12 245.36C29.3542 244.409 29.8454 243.541 30.54 242.85C31.2024 242.015 32.0042 241.301 32.91 240.74C34.0003 240.027 35.1993 239.497 36.46 239.17C37.7465 238.905 39.0735 238.905 40.36 239.17C41.4361 239.397 42.3924 240.009 43.05 240.89C43.5002 241.478 43.7397 242.2 43.73 242.94C43.69 243.43 43.55 243.69 43.52 243.68Z" fill="#263238"/>
<path d="M43.12 232.22C43.3602 233.509 43.2847 234.837 42.9 236.09C42.6825 237.385 42.1578 238.609 41.37 239.66C41.23 239.6 41.92 238.02 42.37 235.97C42.82 233.92 43 232.21 43.12 232.22Z" fill="#263238"/>
<path d="M131.44 265C131.44 265 140.21 295.39 141.27 300.57C141.74 302.85 146.44 322.02 146.44 322.02L149.94 385.87H169.89L174.52 312.87L167.33 264.3C167.33 264.3 140.4 252.82 131.44 265Z" fill="#AA6550"/>
<path d="M149.74 400.51L147.53 351.76L173.38 350.34L170.49 400.77C162.46 403.59 157.73 403.39 149.74 400.51Z" fill="#226F54"/>
<path d="M172.85 357.64C172.85 357.78 167.19 357.9 160.21 357.9C153.23 357.9 147.56 357.78 147.56 357.64C147.56 357.5 153.22 357.38 160.21 357.38C167.2 357.38 172.85 357.49 172.85 357.64Z" fill="#F5F5F5"/>
<path d="M172.85 361.52C172.85 361.66 167.19 361.78 160.21 361.78C153.23 361.78 147.56 361.66 147.56 361.52C147.56 361.38 153.22 361.26 160.21 361.26C167.2 361.26 172.85 361.38 172.85 361.52Z" fill="#F5F5F5"/>
<path d="M82.34 187L53.64 268.81C53.64 268.81 68.28 282.81 78.83 280.38C89.38 277.95 91.42 279.02 95.16 277.66C98.9 276.3 101.39 269.05 104.46 263.6C107.53 258.15 115.35 244.32 115.35 244.32L128.1 277.97C138.35 275.22 151.02 276.25 169.53 271.78C169.53 271.78 160.84 229.33 159.14 222.87C157.44 216.41 155.57 195.87 155.57 195.87C155.57 195.87 88.23 182.4 82.34 187Z" fill="#263238"/>
<path d="M126.08 231.11C125.835 231.447 125.557 231.759 125.25 232.04C124.69 232.62 123.89 233.45 122.93 234.51C120.441 237.274 118.129 240.193 116.01 243.25C113.897 246.315 111.948 249.489 110.17 252.76L108.57 255.76C108.394 256.139 108.183 256.501 107.94 256.84C108.049 256.435 108.2 256.043 108.39 255.67C108.7 254.93 109.2 253.88 109.84 252.6C111.535 249.265 113.453 246.047 115.58 242.97C117.705 239.883 120.076 236.974 122.67 234.27C123.67 233.27 124.5 232.44 125.11 231.91C125.398 231.603 125.724 231.334 126.08 231.11V231.11Z" fill="#455A64"/>
<path d="M146.29 210.68C145.521 211.167 144.69 211.551 143.82 211.82C142.888 212.165 141.918 212.393 140.93 212.5C139.694 212.629 138.445 212.457 137.29 212C135.216 211.144 133.488 209.62 132.38 207.67C132.038 207.098 131.756 206.491 131.54 205.86C131.444 205.632 131.389 205.388 131.38 205.14C131.47 205.14 131.78 206.14 132.69 207.48C133.843 209.269 135.514 210.665 137.48 211.48C139.495 212.198 141.695 212.198 143.71 211.48C144.552 211.158 145.414 210.891 146.29 210.68Z" fill="#455A64"/>
<path d="M146.16 226.62C145.82 226.616 145.483 226.558 145.16 226.45C144.26 226.211 143.388 225.876 142.56 225.45C139.834 224.007 137.51 221.907 135.8 219.34C134.109 216.774 132.827 213.96 132 211C131.68 209.88 131.46 209 131.32 208.32C131.222 207.996 131.175 207.659 131.18 207.32C131.26 207.32 131.62 208.7 132.36 210.9C133.272 213.774 134.575 216.51 136.23 219.03C137.903 221.528 140.131 223.606 142.74 225.1C143.846 225.68 144.988 226.188 146.16 226.62V226.62Z" fill="#455A64"/>
<path d="M89 278.66C89 278.66 72.81 310.49 64.76 312.32C52.76 315.06 48.3 306.53 47.08 305.32C45.86 304.11 27.6 250.89 27.6 250.89C27.6 250.89 30.1 240.96 34.7 240.65C39.3 240.34 42.7 241.52 43.32 243.06C43.94 244.6 55.73 262.8 55.73 262.8L53.63 268.8L89 278.66Z" fill="#AA6550"/>
<path d="M58.67 269.85C58.5707 270.199 58.4297 270.535 58.25 270.85C57.95 271.5 57.5 272.43 56.93 273.57C55.78 275.85 54.15 278.98 52.06 282.28C51.0104 283.757 50.0744 285.311 49.26 286.93C48.7427 288.304 48.5344 289.776 48.65 291.24C48.83 293.76 49.2 295.31 49.1 295.32C48.9456 294.983 48.8379 294.626 48.78 294.26C48.5498 293.272 48.3828 292.27 48.28 291.26C48.11 289.739 48.2914 288.2 48.81 286.76C49.6062 285.098 50.5465 283.508 51.62 282.01C53.69 278.73 55.37 275.63 56.62 273.4L58.09 270.76C58.2433 270.433 58.4383 270.127 58.67 269.85V269.85Z" fill="#723C31"/>
<path d="M37 277.87C37 277.87 37.49 264.48 55.21 261.87L42.74 242.05C42.74 242.05 36.05 238.24 32.24 241.5C28.43 244.76 27.64 250.87 27.64 250.87L37 277.87Z" fill="#226F54"/>
<path d="M53.75 258.88C53.75 258.97 52.42 258.79 50.31 258.96C47.5621 259.175 44.8922 259.977 42.48 261.31C40.0656 262.65 38.008 264.55 36.48 266.85C35.31 268.62 34.9 269.85 34.81 269.85C34.8405 269.539 34.9215 269.235 35.05 268.95C35.3463 268.15 35.7179 267.38 36.16 266.65C37.6321 264.236 39.6977 262.239 42.16 260.85C44.6357 259.475 47.4001 258.701 50.23 258.59C51.078 258.553 51.9276 258.586 52.77 258.69C53.1054 258.694 53.4374 258.758 53.75 258.88Z" fill="#F5F5F5"/>
<path d="M52.06 256.48C52.06 256.58 50.79 256.17 48.71 256.16C45.9999 256.177 43.3392 256.886 40.98 258.22C38.6242 259.564 36.5334 261.326 34.81 263.42C34.0926 264.286 33.5248 265.267 33.13 266.32C33.2436 265.157 33.7313 264.062 34.52 263.2C36.1974 260.985 38.3108 259.137 40.73 257.77C43.16 256.375 45.9296 255.683 48.73 255.77C49.5673 255.806 50.3985 255.93 51.21 256.14C51.5123 256.199 51.8007 256.314 52.06 256.48V256.48Z" fill="#F5F5F5"/>
<path d="M56.61 139.46C56.61 138.46 73.43 99.55 75.08 96.91C76.73 94.27 95.53 79.76 95.53 79.76L101.08 76.95L113.68 82.3801C115.125 83.0135 116.682 83.3534 118.26 83.3801C121.53 83.3801 124.69 82.0901 126.04 79.1001L125.92 75.83L132.92 73.02L137.54 72.3L148.54 67.3C148.54 67.3 161.88 76.64 160.89 87.53L151.2 100C151.2 100 153.78 127.48 153.45 140.68C153.12 153.88 155.57 195.92 155.57 195.92C155.57 195.92 143.36 199.92 134.46 200.21C125.56 200.5 117.32 192.45 101.46 189.48C85.6 186.51 81.14 191 81.14 191L88.6 165.84L89.26 153.31L87.61 139.78L80 157.28L53.61 144.41L56.61 139.46Z" fill="#226F54"/>
<path d="M89.46 108.51C88.9099 107.877 88.4022 107.209 87.94 106.51C86.7459 104.93 85.4498 103.431 84.06 102.02C82.7022 100.584 81.1897 99.303 79.55 98.2C78.8403 97.8065 78.0749 97.5233 77.28 97.36C78.1315 97.2251 79.003 97.4065 79.73 97.87C81.4628 98.9083 83.0443 100.18 84.43 101.65C85.8453 103.075 87.1212 104.632 88.24 106.3C88.753 106.973 89.1641 107.717 89.46 108.51V108.51Z" fill="#263238"/>
<path d="M144.42 133C144.216 133.466 143.968 133.911 143.68 134.33C143.16 135.15 142.37 136.33 141.29 137.71C138.424 141.256 135.185 144.485 131.63 147.34C127.48 150.66 124.18 154.19 121.42 156.34C120.356 157.223 119.229 158.028 118.05 158.75C117.727 158.955 117.394 159.142 117.05 159.31C116.938 159.381 116.817 159.434 116.69 159.47C117.077 159.143 117.488 158.845 117.92 158.58C119.045 157.799 120.126 156.958 121.16 156.06C123.83 153.84 127.1 150.26 131.28 146.92C134.808 144.08 138.056 140.908 140.98 137.45C142.09 136.12 142.92 134.98 143.49 134.19C143.771 133.772 144.082 133.374 144.42 133V133Z" fill="#263238"/>
<path d="M89 151L149 96.5701C149 96.5701 151.41 98.8401 152.31 113.57L152.81 120.97L98.81 161.46C98.81 161.46 93.81 160.18 91 163.61C89.3798 165.551 88.1199 167.766 87.28 170.15L88.59 165.26L89.21 153.34L89 151Z" fill="white"/>
<path d="M116.57 170.05C116.249 170.025 115.933 169.957 115.63 169.85C115.04 169.7 114.19 169.45 113.15 169.13C110.43 168.306 107.759 167.327 105.15 166.2C102.523 165.071 100.031 163.652 97.72 161.97C97.0201 161.458 96.3522 160.904 95.72 160.31C95.4712 160.109 95.2494 159.877 95.06 159.62C95.12 159.55 96.14 160.44 97.93 161.62C100.277 163.196 102.764 164.551 105.36 165.67C108.36 167 111.24 168 113.29 168.73C114.412 169.094 115.508 169.535 116.57 170.05V170.05Z" fill="#263238"/>
<path d="M151.87 108.78C151.77 108.78 151.65 106.96 151.06 104.09C150.243 100.353 149.088 96.6982 147.61 93.17C146.146 89.6315 144.449 86.194 142.53 82.88C141.79 81.62 141.17 80.6 140.73 79.88C140.478 79.5371 140.264 79.1683 140.09 78.78C140.397 79.0814 140.669 79.4169 140.9 79.78C141.39 80.45 142.06 81.43 142.9 82.69C144.906 85.9807 146.642 89.4287 148.09 93C149.583 96.5398 150.699 100.227 151.42 104C151.629 105.148 151.772 106.306 151.85 107.47C151.908 107.904 151.915 108.344 151.87 108.78Z" fill="#263238"/>
<path d="M63.36 123.12L88.83 136.18L93.07 123.75L69.73 108.51L63.36 123.12Z" fill="white"/>
<path d="M95.06 117.15C95.0547 117.489 95.0008 117.826 94.9 118.15C94.76 118.77 94.54 119.65 94.23 120.73C93.63 122.9 92.67 125.86 91.56 129.1L88.68 137.38C88.3 138.44 87.96 139.29 87.68 139.86C87.5709 140.168 87.4158 140.458 87.22 140.72C87.15 140.72 87.66 139.4 88.32 137.26C88.98 135.12 89.94 132.16 91.06 128.93C92.18 125.7 93.18 122.76 93.87 120.63C94.198 119.448 94.5954 118.286 95.06 117.15V117.15Z" fill="#263238"/>
<path d="M81.61 153.62C81.56 153.75 75.61 151.25 68.26 148.02C60.91 144.79 55.06 142.08 55.12 141.95C55.18 141.82 61.12 144.32 68.47 147.55C75.82 150.78 81.67 153.49 81.61 153.62Z" fill="#FAFAFA"/>
<path d="M138.19 110.31L139.28 112.52L132.59 115.83L131.73 114.08L133.24 109.03C133.384 108.716 133.458 108.375 133.458 108.03C133.458 107.685 133.384 107.344 133.24 107.03C133.181 106.88 133.09 106.745 132.971 106.636C132.853 106.527 132.711 106.446 132.557 106.4C132.403 106.354 132.24 106.343 132.081 106.369C131.922 106.395 131.771 106.457 131.64 106.55C131.32 106.709 131.051 106.954 130.864 107.258C130.677 107.562 130.578 107.913 130.58 108.27L128.2 108C128.217 107.189 128.465 106.4 128.915 105.725C129.365 105.05 129.998 104.517 130.74 104.19C132.74 103.19 134.66 103.71 135.57 105.54C135.857 106.141 136.013 106.796 136.027 107.461C136.04 108.127 135.912 108.788 135.65 109.4L134.88 111.92L138.19 110.31Z" fill="#263238"/>
<path d="M137.54 107.24C135.93 103.97 136.6 101.31 138.8 100.24C141 99.17 143.5 100.24 145.11 103.52C146.72 106.8 146.06 109.44 143.87 110.52C141.68 111.6 139.15 110.5 137.54 107.24ZM142.67 104.7C141.67 102.63 140.67 102.13 139.93 102.51C139.19 102.89 139 104 140 106C141 108 142 108.57 142.76 108.19C143.52 107.81 143.7 106.78 142.67 104.7V104.7Z" fill="#263238"/>
<path d="M115 115.81C114.424 116.265 113.788 116.638 113.11 116.92C109.937 118.465 106.575 119.588 103.11 120.26C102.397 120.436 101.664 120.52 100.93 120.51C100.93 120.35 104.18 119.73 108.08 118.42C111.98 117.11 114.94 115.67 115 115.81Z" fill="#FAFAFA"/>
<path d="M128 75C128 75 128.07 75.12 128.15 75.36C128.265 75.7154 128.348 76.0801 128.4 76.45C128.579 77.8264 128.396 79.2255 127.87 80.51C127.098 82.4461 125.648 84.035 123.79 84.98C121.479 85.9978 118.924 86.3276 116.43 85.93C113.956 85.6264 111.543 84.9522 109.27 83.93C107.422 83.1147 105.632 82.1759 103.91 81.12C102.44 80.23 101.29 79.46 100.49 78.91C100.064 78.6541 99.6658 78.3559 99.3 78.02C99.7524 78.2237 100.187 78.4646 100.6 78.74C101.43 79.23 102.6 79.96 104.1 80.81C105.832 81.809 107.622 82.7039 109.46 83.49C111.69 84.4613 114.047 85.1111 116.46 85.42C118.857 85.8009 121.313 85.503 123.55 84.56C125.03 83.8148 126.257 82.65 127.079 81.2112C127.901 79.7723 128.28 78.1233 128.17 76.47C128.16 75.54 128 75 128 75Z" fill="#FAFAFA"/>
<path d="M159.44 89.7201C159.34 89.7201 159.31 88.2601 158.75 85.9901C157.98 83.0435 156.759 80.2337 155.13 77.6601C153.483 75.0886 151.662 72.6329 149.68 70.3101L147.91 68.1601C147.681 67.9054 147.48 67.6271 147.31 67.3301C147.31 67.3301 147.61 67.5501 148.07 68.0201C148.53 68.4901 149.18 69.1901 149.96 70.0201C152.04 72.2915 153.917 74.7409 155.57 77.3401C157.233 79.9543 158.431 82.8369 159.11 85.8601C159.298 86.7767 159.418 87.7059 159.47 88.6401C159.509 88.9998 159.499 89.3631 159.44 89.7201Z" fill="#FAFAFA"/>
<g opacity="0.3">
<path d="M93.77 121.09C92.06 127.39 89.51 133.83 87.63 139.9C88.4 140.02 88.45 140.47 89.04 139.96C90.66 138.52 92.43 136.96 93.24 134.96C93.6835 133.67 93.9362 132.323 93.99 130.96C94.28 127.62 94.56 124.28 93.77 121.09Z" fill="black"/>
</g>
<g opacity="0.3">
<path d="M98.13 162C103.01 164.77 108.76 165.59 114.37 165.67C119.98 165.75 125.58 165.15 131.18 165.34C133.787 165.294 136.371 165.823 138.75 166.89C139.918 167.438 140.924 168.28 141.669 169.333C142.414 170.387 142.873 171.616 143 172.9C143.034 173.195 142.971 173.494 142.82 173.75C142.68 173.9 142.511 174.02 142.324 174.104C142.137 174.188 141.935 174.235 141.73 174.24C138.701 174.578 135.646 174.612 132.61 174.34C129.75 174.249 126.903 173.914 124.1 173.34C117.59 171.85 111.87 167.84 105.36 166.34" fill="black"/>
</g>
</svg>
