<svg width="500" height="500" viewBox="0 0 500 500" fill="none" xmlns="http://www.w3.org/2000/svg">
<path d="M360.08 75.19L351.58 75.1L342 77.52C342 77.52 326.66 79.28 324.7 81.13L302.19 102.4L275.74 117.74L287.37 135.74L313.64 117.67L334.64 87.52C334.64 87.52 340.24 92 343.74 91C345.922 90.2922 348.182 89.849 350.47 89.68C351.11 89.68 358.73 88.22 358.73 88.22C358.717 87.83 358.581 87.4541 358.342 87.1454C358.104 86.8367 357.774 86.6109 357.4 86.5C356 85.94 349.58 86.03 349.19 85.97C348.771 85.8885 348.375 85.7165 348.03 85.4661C347.684 85.2156 347.398 84.8927 347.19 84.52C347.19 84.46 347.19 84.41 347.19 84.35C347.185 84.3001 347.185 84.2499 347.19 84.2C347.093 83.4732 347.127 82.7349 347.29 82.02L347.17 83.83L349.96 81.35H355.42L357.66 84.35C357.66 84.35 359.5 84.11 359.24 83.04C358.582 81.5715 357.792 80.1658 356.88 78.84L353.61 78.08L353.79 77.92C355.59 77.92 359.47 77.85 360.37 77.3C361.88 76.37 360.08 75.19 360.08 75.19Z" fill="#AA6550"/>
<path d="M307.86 113.84C306.699 113.066 305.783 111.977 305.22 110.7C304.503 109.493 304.156 108.102 304.22 106.7C304.38 106.7 304.66 108.48 305.67 110.45C306.68 112.42 308 113.72 307.86 113.84Z" fill="#723C31"/>
<path d="M276.68 79.86C276.77 79.11 276.77 78.16 276.09 77.86C275.832 77.7485 275.551 77.7005 275.27 77.72C274.031 77.703 272.793 77.7967 271.57 78C271.198 78.0797 270.812 78.0797 270.44 78C270.01 77.89 269.66 77.56 269.23 77.44C267.57 76.97 266.04 79.7 264.52 78.89C263.33 78.26 263.87 76.31 263.01 75.28C262.28 74.4 260.85 74.53 259.95 73.82C259.471 73.3213 259.058 72.7635 258.72 72.16C258.07 71.29 257.05 70.66 256.72 69.63C256.603 69.0569 256.536 68.4747 256.52 67.89C256.416 67.5796 256.253 67.2927 256.038 67.0456C255.824 66.7985 255.563 66.5961 255.27 66.45L255.99 66.51C256.79 66.51 257.84 66.75 257.87 67.51C258.168 67.2515 258.536 67.087 258.928 67.0372C259.319 66.9873 259.717 67.0544 260.07 67.23C260.769 67.5961 261.527 67.8332 262.31 67.93C262.76 67.93 263.21 67.77 263.66 67.8C264.117 67.8926 264.55 68.0757 264.935 68.3385C265.319 68.6012 265.648 68.9384 265.9 69.33C266.44 68.48 267.7 68.52 268.64 68.88C269.52 69.3777 270.501 69.6716 271.51 69.74C272.51 69.65 273.41 68.36 272.7 67.65C271.18 66.71 268.88 67.65 267.61 66.41C267.27 66.08 267.02 65.6 266.55 65.5C266.31 65.5 266.06 65.5 265.82 65.5C265.12 65.41 264.71 64.6 264.02 64.44C263.33 64.28 262.83 64.68 262.26 64.53C261.51 64.32 261.16 63.29 260.39 63.19C259.92 63.13 259.48 63.45 259 63.51C257.76 63.68 256.83 62.11 255.57 62.16C254.76 62.16 254.07 62.9 253.27 62.85C252.686 62.7432 252.154 62.4439 251.76 62C251.012 61.3438 250.152 60.8288 249.22 60.48C247.877 59.9852 246.45 59.7609 245.02 59.82C245.064 59.7106 245.114 59.6038 245.17 59.5C245.29 59.3469 245.441 59.2212 245.614 59.1315C245.786 59.0418 245.976 58.9902 246.17 58.98C248.695 58.4642 251.277 58.276 253.85 58.42C254.396 58.5191 254.96 58.4199 255.44 58.14C255.81 57.85 256.02 57.31 256.44 57.25C256.86 57.19 257.11 57.48 257.44 57.57C258.61 57.87 259.69 56.15 260.79 56.63C261.1 56.77 261.34 57.06 261.67 57.08C262.16 57.08 262.45 56.56 262.87 56.31C263.521 56.0763 264.237 56.1014 264.87 56.38C265.54 56.53 266.43 56.45 266.65 55.81C266.701 55.5314 266.657 55.2437 266.524 54.9933C266.392 54.743 266.179 54.5445 265.92 54.43C265.294 54.0698 264.554 53.9591 263.85 54.12C263.492 54.2563 263.113 54.3307 262.73 54.34C262.12 54.27 261.66 53.68 261.04 53.6C260.04 53.49 259.18 54.78 258.24 54.43C257.87 54.29 257.61 53.92 257.24 53.81C256.16 53.5 255.24 55.47 254.24 54.92C253.87 54.71 253.71 54.2 253.3 54.09C252.5 53.87 252.3 55.26 251.55 55.65C250.8 56.04 249.93 55.16 249.04 55.1C247.67 55.01 246.77 56.97 245.41 56.79C244.973 56.6696 244.553 56.4949 244.16 56.27C243.7 56.095 243.198 56.0615 242.719 56.1737C242.239 56.286 241.805 56.5389 241.47 56.9C241.25 57.2263 240.984 57.5193 240.68 57.77C239.85 58.28 238.76 57.54 237.82 57.77C236.51 58.09 236.09 60.04 234.76 60.25C234.335 60.2778 233.908 60.2304 233.5 60.11C233.085 60.05 232.665 60.05 232.25 60.11C232.397 58.3229 233.169 56.6448 234.43 55.37C235.336 54.5308 236.344 53.8085 237.43 53.22C237.804 52.9739 238.207 52.7757 238.63 52.63C238.942 52.5549 239.26 52.5048 239.58 52.48C240.534 52.3595 241.477 52.1622 242.4 51.89C242.702 51.8146 242.989 51.6896 243.25 51.52C243.432 51.3829 243.578 51.2035 243.674 50.9973C243.771 50.7912 243.816 50.5645 243.806 50.337C243.795 50.1095 243.729 49.888 243.613 49.6917C243.498 49.4955 243.336 49.3304 243.142 49.2108C242.949 49.0912 242.728 49.0207 242.501 49.0054C242.274 48.9901 242.046 49.0304 241.838 49.123C241.63 49.2155 241.448 49.3574 241.307 49.5364C241.166 49.7153 241.071 49.926 241.03 50.15C240.951 49.9933 240.838 49.8563 240.699 49.7488C240.56 49.6414 240.399 49.5663 240.228 49.5289C240.056 49.4915 239.879 49.4929 239.708 49.5329C239.537 49.5729 239.377 49.6505 239.24 49.76C238.94 50.05 238.79 50.5 238.42 50.7C238.05 50.9 237.42 50.65 236.82 50.59C236.548 50.5775 236.277 50.6246 236.026 50.7282C235.774 50.8318 235.549 50.9892 235.365 51.1894C235.181 51.3896 235.043 51.6278 234.961 51.887C234.879 52.1463 234.855 52.4204 234.89 52.69C234.719 52.5832 234.527 52.5124 234.328 52.4818C234.128 52.4512 233.925 52.4614 233.729 52.5119C233.534 52.5624 233.351 52.6521 233.191 52.7756C233.031 52.899 232.898 53.0536 232.8 53.23C232.621 53.6015 232.546 54.015 232.585 54.4257C232.624 54.8364 232.774 55.2287 233.02 55.56C232.799 55.4688 232.562 55.4224 232.323 55.4234C232.083 55.4244 231.847 55.4728 231.626 55.5657C231.406 55.6587 231.206 55.7945 231.039 55.9651C230.871 56.1358 230.739 56.338 230.65 56.56C230.44 57.12 230.51 57.8 230.11 58.25C229.942 58.4003 229.765 58.5405 229.58 58.67C228.67 59.39 228.68 60.67 229.02 61.86C228.62 62.3231 228.314 62.8598 228.12 63.44H227.93C227.145 63.1706 226.297 63.1468 225.498 63.372C224.7 63.5971 223.989 64.0604 223.46 64.7C223.096 65.2099 222.702 65.6974 222.28 66.16C221.39 66.96 220.09 67.08 219.37 68.06C219.02 68.53 218.84 69.17 218.37 69.53C217.977 69.7541 217.552 69.916 217.11 70.01C216.573 70.265 216.123 70.6739 215.819 71.185C215.514 71.696 215.368 72.286 215.4 72.88V72.88C215.402 73.2691 215.484 73.6536 215.64 74.01C215.599 74.3466 215.456 74.6628 215.231 74.9165C215.006 75.1701 214.709 75.3492 214.38 75.43C213.76 75.55 213.03 75.33 212.57 75.75C212.11 76.17 212.42 77.37 211.96 78.04C211.38 78.89 209.81 78.46 209.23 79.31C208.65 80.16 209.23 81.4 208.33 81.64C208.14 81.64 207.92 81.64 207.77 81.78C207.62 81.92 207.7 82.45 207.63 82.78C207.48 83.55 206.2 83.43 205.78 84.09C205.46 84.58 205.78 85.21 205.93 85.78C206.08 86.35 205.77 87.18 205.21 87.04C205.75 87.14 206 87.79 206.04 88.35C205.992 88.9051 206.099 89.4625 206.35 89.96C206.504 90.1242 206.648 90.2979 206.78 90.48C206.932 90.8259 206.97 91.2109 206.89 91.58C206.78 92.48 206.68 93.39 206.57 94.29C206.46 95.19 206.72 96.37 207.57 96.29C207.86 96.29 208.14 96.04 208.42 96.12C208.7 96.2 208.82 96.49 209.08 96.57C209.68 96.76 209.87 95.79 209.78 95.17C209.57 93.6772 209.76 92.1555 210.33 90.76C210.518 90.3813 210.649 89.9769 210.72 89.56C210.648 88.8128 210.473 88.0792 210.2 87.38C209.88 85.84 210.81 84.38 211.69 83.04C212.336 82.0287 213.112 81.1074 214 80.3C214.522 79.8828 215.07 79.4987 215.64 79.15C215.256 79.7292 215.045 80.4054 215.03 81.1C215.086 81.3638 215.086 81.6362 215.03 81.9C214.917 82.0962 214.751 82.2559 214.55 82.36C213.55 83.03 212.6 84.36 213.04 85.63C213.21 86.08 213.53 86.45 213.67 86.91C213.756 87.4696 213.806 88.0341 213.82 88.6C213.891 88.9426 213.994 89.2776 214.13 89.6L214.65 90.89C215.053 92.0917 215.677 93.2075 216.49 94.18C216.75 94.3965 216.962 94.6657 217.11 94.97C217.24 95.32 217.18 95.72 217.28 96.08C217.399 96.3596 217.577 96.6105 217.801 96.8158C218.025 97.021 218.291 97.1759 218.58 97.27L223.63 99.64C223.982 99.8328 224.37 99.9487 224.77 99.98C225.13 99.98 225.47 99.82 225.82 99.79C226.88 99.69 227.82 100.69 228.87 100.79C229.336 100.808 229.796 100.674 230.18 100.409C230.563 100.144 230.851 99.7622 231 99.32L230.2 84.07L231.12 78.6L234.63 73.81L250.63 67.48L258.63 78.63C260.174 79.7128 261.855 80.5838 263.63 81.22C264.054 81.4184 264.527 81.488 264.99 81.42C265.51 81.28 265.94 80.82 266.48 80.85C267.02 80.88 267.31 81.24 267.75 81.18C268.19 81.12 268.57 80.51 269.08 80.52C269.329 80.5646 269.571 80.6419 269.8 80.75C270.352 80.7935 270.904 80.6753 271.39 80.41C273.39 79.76 275.39 80.95 277.1 82.09C277.42 81.9366 277.692 81.6975 277.884 81.3991C278.076 81.1008 278.182 80.7549 278.19 80.4C278.13 79.69 277 79.25 276.68 79.86Z" fill="#263238"/>
<path d="M282.26 91.0501C281.88 90.2201 280.64 90.5901 279.87 91.0501C280.12 90.5401 279.28 90.1401 278.76 90.3701C278.24 90.6001 277.83 91.1201 277.26 91.1601C277.017 91.1696 276.773 91.1392 276.54 91.0701C275.693 90.9214 274.822 91.0887 274.09 91.5401C273.59 91.8501 273 92.3001 272.5 92.0001C272 91.7001 272.05 91.1801 271.71 90.8601C270.98 90.1701 269.71 91.1401 268.81 90.7301C267.91 90.3201 267.74 88.6401 266.71 88.6101C266.04 88.6101 265.57 89.3801 264.9 89.4401C264.05 89.5201 263.57 88.4401 263.53 87.5901C263.49 86.7401 263.53 85.7101 262.85 85.1901L260.4 89.7101C260.477 90.0883 260.654 90.439 260.913 90.7257C261.171 91.0124 261.502 91.2245 261.87 91.3401C262.176 91.3836 262.468 91.5002 262.72 91.6801C262.95 91.9101 262.98 92.2701 263.15 92.5401C263.352 92.7754 263.607 92.959 263.894 93.0756C264.181 93.1921 264.491 93.2383 264.8 93.2101C265.8 93.2101 266.89 93.2701 267.48 94.0401C267.618 94.2747 267.782 94.4928 267.97 94.6901C268.197 94.8036 268.447 94.8627 268.7 94.8627C268.953 94.8627 269.203 94.8036 269.43 94.6901C270.668 94.2881 271.94 94.0003 273.23 93.8301C273.721 93.725 274.229 93.725 274.72 93.8301C275.27 93.9901 275.79 94.4101 276.35 94.2601C276.686 94.1137 276.984 93.8911 277.22 93.6101C277.83 93.0351 278.615 92.6827 279.45 92.6101C280.094 92.6309 280.737 92.5806 281.37 92.4601C282 92.3101 282.52 91.6401 282.26 91.0501Z" fill="#263238"/>
<path d="M229.64 95C229.47 94.93 222.74 93.1 223.09 99.92C223.44 106.74 230.21 105 230.21 104.8C230.21 104.6 229.64 95 229.64 95Z" fill="#AA6550"/>
<path d="M228 102.3C228 102.3 227.88 102.39 227.69 102.49C227.413 102.627 227.093 102.648 226.8 102.55C226.348 102.289 225.972 101.915 225.709 101.464C225.446 101.013 225.305 100.502 225.3 99.98C225.261 99.3954 225.346 98.8092 225.55 98.26C225.6 98.0369 225.703 97.8293 225.852 97.6551C226 97.4808 226.188 97.3453 226.4 97.26C226.535 97.2192 226.68 97.2256 226.811 97.2784C226.942 97.3311 227.051 97.4269 227.12 97.55C227.22 97.74 227.18 97.88 227.22 97.89C227.26 97.9 227.36 97.77 227.29 97.49C227.247 97.3196 227.144 97.1705 227 97.07C226.806 96.9405 226.57 96.8904 226.34 96.93C226.062 96.9991 225.807 97.1384 225.599 97.3345C225.39 97.5306 225.236 97.777 225.15 98.05C224.883 98.6562 224.773 99.32 224.83 99.98C224.827 100.589 225.003 101.185 225.338 101.694C225.672 102.203 226.15 102.602 226.71 102.84C226.897 102.883 227.09 102.884 227.277 102.843C227.464 102.801 227.639 102.718 227.79 102.6C228 102.46 228 102.31 228 102.3Z" fill="#723C31"/>
<path d="M242.79 63.84C242.79 63.84 224.7 65.23 224 77.94C223.3 90.65 229.72 97.94 229.72 97.94L233.88 75.94L245.76 70.34L256.26 70.22C256.26 70.22 254.05 63.7 242.79 63.84Z" fill="#226F54"/>
<path d="M264.74 107.68C264.74 102.85 263.84 92.92 262.95 83.94C262.488 79.2837 260.291 74.9719 256.794 71.8625C253.297 68.7532 248.758 67.0743 244.08 67.16H243.08C232.7 67.95 227.58 77.22 228.66 87.58L230.18 129.75L255.24 137.32L254.81 119.39C254.81 119.39 264.8 117.67 264.74 107.68Z" fill="#AA6550"/>
<path d="M254.85 119.4C250.237 119.572 245.677 118.368 241.75 115.94C241.75 115.94 244.97 123.07 254.92 121.94L254.85 119.4Z" fill="#723C31"/>
<path d="M260.28 91.16C260.291 91.5317 260.156 91.8928 259.903 92.1658C259.651 92.4387 259.301 92.6018 258.93 92.62C258.749 92.6378 258.566 92.6191 258.392 92.565C258.219 92.5109 258.058 92.4225 257.919 92.305C257.78 92.1875 257.666 92.0434 257.584 91.881C257.501 91.7187 257.452 91.5415 257.44 91.36C257.429 90.99 257.563 90.6303 257.813 90.3576C258.063 90.0849 258.41 89.9207 258.78 89.9C258.962 89.8808 259.146 89.8984 259.321 89.9518C259.496 90.0053 259.658 90.0935 259.798 90.2111C259.938 90.3287 260.053 90.4734 260.136 90.6364C260.218 90.7995 260.268 90.9776 260.28 91.16Z" fill="#263238"/>
<path d="M261 88.34C260.83 88.52 259.73 87.74 258.2 87.78C256.67 87.82 255.55 88.6 255.38 88.41C255.21 88.22 255.47 87.99 255.95 87.63C256.607 87.1528 257.398 86.894 258.21 86.89C259.006 86.8689 259.788 87.1038 260.44 87.56C261 87.92 261.12 88.25 261 88.34Z" fill="#263238"/>
<path d="M245.16 91.7501C245.171 92.1217 245.036 92.4828 244.783 92.7558C244.531 93.0288 244.181 93.1919 243.81 93.2101C243.452 93.2464 243.094 93.1395 242.815 92.9128C242.536 92.686 242.358 92.3578 242.32 92.0001C242.309 91.6274 242.444 91.2652 242.696 90.9906C242.948 90.716 243.298 90.5508 243.67 90.5301C243.848 90.5121 244.028 90.5294 244.199 90.5811C244.37 90.6327 244.53 90.7176 244.668 90.8309C244.807 90.9443 244.921 91.0838 245.006 91.2415C245.09 91.3992 245.142 91.572 245.16 91.7501V91.7501Z" fill="#263238"/>
<path d="M245.72 88.19C245.57 88.39 244.4 87.74 242.87 87.93C241.34 88.12 240.33 89.04 240.14 88.87C239.95 88.7 240.19 88.44 240.63 88.03C241.228 87.4791 241.983 87.1294 242.79 87.03C243.58 86.9222 244.383 87.0731 245.08 87.46C245.6 87.78 245.8 88.09 245.72 88.19Z" fill="#263238"/>
<path d="M251.59 100.71C252.392 100.44 253.226 100.275 254.07 100.22C254.46 100.22 254.83 100.08 254.89 99.81C254.919 99.4069 254.821 99.0048 254.61 98.66L253.4 95.66C251.71 91.44 250.48 87.97 250.65 87.9C250.82 87.83 252.33 91.2 254.02 95.42L255.18 98.42C255.437 98.8862 255.518 99.4289 255.41 99.95C255.356 100.089 255.271 100.214 255.162 100.316C255.053 100.419 254.922 100.495 254.78 100.54C254.562 100.604 254.337 100.638 254.11 100.64C253.276 100.771 252.43 100.794 251.59 100.71V100.71Z" fill="#263238"/>
<path d="M247.09 101.86C247.34 101.86 247.37 103.5 248.82 104.66C250.27 105.82 252.04 105.6 252.06 105.83C252.08 106.06 251.67 106.16 250.92 106.2C249.943 106.233 248.986 105.918 248.22 105.31C247.481 104.732 246.997 103.889 246.87 102.96C246.8 102.27 247 101.85 247.09 101.86Z" fill="#263238"/>
<path d="M245.81 81.5601C245.67 81.9801 244.13 81.8101 242.33 82.0601C240.53 82.3101 239.09 82.8301 238.84 82.4601C238.73 82.2801 238.98 81.8801 239.56 81.4601C240.323 80.9235 241.205 80.5804 242.13 80.4601C243.052 80.3331 243.991 80.4256 244.87 80.7301C245.53 81.0001 245.87 81.3601 245.81 81.5601Z" fill="#263238"/>
<path d="M260.25 84.4301C259.98 84.7801 258.92 84.4301 257.64 84.4301C256.36 84.4301 255.3 84.7 255.05 84.34C254.93 84.17 255.05 83.8201 255.56 83.4801C256.18 83.0656 256.909 82.8444 257.655 82.8444C258.401 82.8444 259.13 83.0656 259.75 83.4801C260.21 83.9001 260.36 84.2601 260.25 84.4301Z" fill="#263238"/>
<path d="M251.38 66.09C247.85 64.7 244.27 65.44 240.52 65.99C237.625 66.346 234.87 67.4411 232.52 69.17C228.72 71.97 226.84 76.44 226.63 81.17C226.426 85.7061 226.925 90.2466 228.11 94.63L228.48 94.54C228.149 95.6741 228.132 96.8768 228.43 98.02C228.602 98.5802 228.985 99.0513 229.498 99.3333C230.012 99.6153 230.615 99.6859 231.18 99.53C232.44 98.97 232.48 97.24 232.37 95.87C231.98 91.2033 232.11 86.5077 232.76 81.87C233.06 79.74 233.57 77.44 235.24 76.09C236.73 74.89 238.78 74.73 240.65 74.35C243.79 73.71 246.74 72.35 249.89 71.77C253.04 71.19 257.05 71.85 259.08 74.32C258.35 70.58 254.92 67.48 251.38 66.09Z" fill="#263238"/>
<path d="M237.36 118.87C237.24 118.12 236.52 117.62 235.9 117.18C234.16 115.969 232.612 114.503 231.31 112.83C231.116 112.549 230.88 112.299 230.61 112.09C230.344 111.914 230.054 111.776 229.75 111.68C227.347 110.726 225.358 108.955 224.13 106.68C223.104 104.437 222.465 102.036 222.24 99.5801C222.15 98.9501 222.06 98.3201 221.96 97.6901C221.64 95.5101 221.17 93.0801 219.35 91.8301L216.42 92.3601C215.47 92.9101 215.8 94.3601 216.42 95.2701C217.04 96.1801 217.89 97.1401 217.6 98.2001C217.431 98.5493 217.323 98.9246 217.28 99.3101C217.35 100.31 218.98 100.51 219.08 101.48C219.08 102.06 218.58 102.56 218.62 103.14C218.66 103.72 219.45 104.14 219.81 104.76C220.32 105.58 219.91 106.76 220.36 107.58C220.81 108.4 222.36 108.85 222.59 109.92C222.75 110.62 222.3 111.33 222.33 112.05C222.383 112.522 222.54 112.976 222.79 113.38C223.27 114.3 223.85 115.31 224.86 115.56C225.38 115.69 225.94 115.56 226.47 115.71C227 115.86 227.57 116.22 228.15 116.38C228.73 116.54 229.51 116.32 229.62 115.73C230.43 115.97 230.8 116.86 231.23 117.58C231.66 118.3 232.58 118.97 233.23 118.51C233.341 119.011 233.585 119.473 233.937 119.846C234.289 120.219 234.736 120.49 235.23 120.63C235.491 120.697 235.764 120.701 236.027 120.642C236.29 120.583 236.535 120.463 236.742 120.291C236.95 120.12 237.114 119.902 237.221 119.655C237.329 119.408 237.376 119.139 237.36 118.87V118.87Z" fill="#263238"/>
<path d="M238.77 106.69C237.77 105.94 236.48 105.31 236.16 104.09C236.105 103.748 236.014 103.413 235.89 103.09C235.62 102.59 235 102.38 234.67 101.92C234.487 101.583 234.339 101.228 234.23 100.86C234.048 100.467 233.755 100.137 233.387 99.9094C233.019 99.6818 232.592 99.5673 232.16 99.58C232.18 99.3576 232.152 99.1335 232.08 98.9222C232.008 98.711 231.892 98.5171 231.741 98.3532C231.589 98.1894 231.405 98.059 231.2 97.9706C230.995 97.8822 230.773 97.8377 230.55 97.84C230.7 95.71 229.42 93.78 228.19 92.04L227.1 90.51C226.896 90.2358 226.722 89.9408 226.58 89.63C226.473 89.3043 226.396 88.9696 226.35 88.63C225.59 85.7908 224.488 83.0543 223.07 80.48L222.21 89.34C222.04 90.2689 222.04 91.221 222.21 92.15C222.302 92.6178 222.52 93.0515 222.841 93.4041C223.162 93.7566 223.573 94.0146 224.03 94.15C224.377 94.1663 224.717 94.2512 225.03 94.4C225.65 94.83 225.35 95.78 225.42 96.53C225.56 98.28 227.87 99.13 228.25 100.84C228.52 102.09 227.8 103.77 228.88 104.46C229.19 104.66 229.58 104.7 229.88 104.87C230.58 105.24 230.88 106.1 231.35 106.71C231.82 107.32 233.09 107.49 233.27 106.71C233.71 107.6 234.98 107.64 235.75 108.27C236.091 108.597 236.396 108.959 236.66 109.35C237.42 110.29 238.98 110.83 239.77 109.93C240.56 109.03 239.77 107.45 238.77 106.69Z" fill="#263238"/>
<path d="M232 100.12C231.835 99.8414 231.707 99.5421 231.62 99.23L231.23 98.17C231.158 97.9674 231.054 97.7782 230.92 97.61C230.77 97.44 230.59 97.34 230.44 97.43L230.11 97.61L230.18 97.22C230.236 96.8204 230.148 96.4138 229.932 96.073C229.716 95.7323 229.385 95.4795 229 95.36C228.858 95.298 228.729 95.2098 228.62 95.1C228.5 94.9676 228.43 94.7982 228.42 94.62C228.43 94.3784 228.41 94.1366 228.36 93.9C228.287 93.6833 228.154 93.4916 227.978 93.3466C227.801 93.2016 227.587 93.1092 227.36 93.08L227 93L227.25 92.65C227.63 92.13 227.19 91.35 226.87 90.57C226.72 90.217 226.629 89.8422 226.6 89.46C226.603 89.124 226.57 88.7887 226.5 88.46C226.464 88.3288 226.396 88.2088 226.302 88.1109C226.207 88.0131 226.09 87.9405 225.96 87.9C225.781 87.828 225.618 87.7198 225.482 87.5821C225.346 87.4445 225.24 87.2804 225.17 87.1C225.062 86.4923 225.002 85.8771 224.99 85.26C224.88 84.77 224.5 84.33 224.17 84.48L223.91 84.6V84.31C223.856 83.2816 223.576 82.2777 223.09 81.37C222.73 80.73 222.47 80.37 222.5 80.37C222.53 80.37 222.86 80.62 223.28 81.25C223.852 82.1538 224.195 83.1836 224.28 84.25L224.01 84.08C224.17 84.0185 224.344 84.0057 224.512 84.043C224.679 84.0804 224.831 84.1663 224.95 84.29C225.176 84.5211 225.338 84.8072 225.42 85.12C225.451 85.7163 225.515 86.3105 225.61 86.9C225.661 87.0214 225.738 87.1305 225.834 87.2202C225.931 87.3098 226.045 87.3779 226.17 87.42C226.362 87.4919 226.534 87.6068 226.675 87.7559C226.815 87.905 226.92 88.0843 226.98 88.28C227.065 88.6372 227.108 89.0029 227.11 89.37C227.128 89.7152 227.209 90.0542 227.35 90.37C227.49 90.75 227.69 91.12 227.81 91.55C227.894 91.7758 227.924 92.0182 227.898 92.2577C227.872 92.4973 227.791 92.7275 227.66 92.93L227.48 92.53C227.801 92.5749 228.102 92.7095 228.35 92.9182C228.598 93.127 228.781 93.4014 228.88 93.71C228.949 93.981 228.972 94.2614 228.95 94.54C228.95 94.73 229.03 94.79 229.25 94.9C229.712 95.0729 230.098 95.4037 230.339 95.8338C230.581 96.2638 230.663 96.7655 230.57 97.25L230.31 97.05C230.396 97.0104 230.49 96.99 230.585 96.99C230.68 96.99 230.774 97.0104 230.86 97.05C230.996 97.1256 231.115 97.2276 231.21 97.35C231.364 97.5528 231.476 97.7839 231.54 98.03L231.84 99.12C231.95 99.4419 232.004 99.78 232 100.12Z" fill="#455A64"/>
<path d="M227.18 98.31C226.43 97.9646 225.802 97.3997 225.38 96.69C225.16 96.38 224.93 96.04 224.7 95.69C224.413 95.2922 224.193 94.8495 224.05 94.38C223.98 94.1 224.05 93.8 223.97 93.66C223.89 93.52 223.76 93.39 223.53 93.23C223.031 92.8591 222.691 92.3121 222.58 91.7C222.53 91.37 222.58 91.13 222.43 91.02C222.28 90.91 222.04 90.74 221.83 90.55C221.393 90.1991 221.049 89.7457 220.83 89.23C220.648 88.7723 220.559 88.2826 220.57 87.79C220.57 87.42 220.28 87.22 220.04 86.87C219.679 86.3677 219.477 85.7685 219.46 85.15C219.46 84.72 219.54 84.5 219.57 84.5C219.621 84.7065 219.651 84.9175 219.66 85.13C219.751 85.6854 219.981 86.2085 220.33 86.65C220.44 86.79 220.57 86.9 220.72 87.07C220.884 87.2648 220.982 87.5063 221 87.76C221.02 88.1886 221.122 88.6095 221.3 89C221.495 89.4326 221.786 89.8155 222.15 90.12C222.39 90.2782 222.618 90.4554 222.83 90.65C222.999 90.927 223.089 91.2453 223.09 91.57C223.183 92.0517 223.45 92.4823 223.84 92.78C224.111 92.9403 224.324 93.1817 224.45 93.47C224.53 93.83 224.45 94.04 224.52 94.24C224.641 94.6626 224.827 95.064 225.07 95.43C225.29 95.8 225.49 96.15 225.69 96.43C226.133 97.0971 226.632 97.7259 227.18 98.31V98.31Z" fill="#455A64"/>
<path d="M218.79 83.3301C218.79 83.3301 218.52 83.1901 218.29 82.7501C218.147 82.477 218.062 82.1775 218.04 81.8701C218.008 81.6641 218.032 81.4533 218.11 81.2601C218.146 81.1758 218.207 81.1048 218.286 81.0571C218.364 81.0094 218.455 80.9873 218.546 80.9939C218.638 81.0005 218.725 81.0355 218.795 81.094C218.866 81.1524 218.917 81.2315 218.94 81.3201L219.04 81.6801L218.65 81.5401C218.402 81.4326 218.19 81.2573 218.038 81.0343C217.886 80.8113 217.8 80.5498 217.79 80.2801C217.785 79.7277 217.923 79.1834 218.19 78.7L218.24 78.9901C218.037 78.7947 217.889 78.55 217.81 78.2801C217.648 77.6537 217.648 76.9965 217.81 76.3701C217.866 76.0553 218 75.7596 218.2 75.5101C218.31 75.3841 218.451 75.2878 218.608 75.2302C218.765 75.1725 218.934 75.1553 219.1 75.1801L218.84 75.3601C218.96 74.6315 219.259 73.9442 219.71 73.3601C220.04 72.9501 220.3 72.7901 220.33 72.8201C219.799 73.603 219.437 74.4887 219.27 75.4201V75.6501H219.04C218.953 75.6438 218.866 75.6598 218.788 75.6966C218.709 75.7333 218.641 75.7896 218.59 75.8601C218.451 76.0518 218.361 76.2752 218.33 76.5101C218.2 77.0524 218.2 77.6177 218.33 78.1601C218.384 78.3482 218.483 78.52 218.62 78.6601L218.76 78.7901L218.68 78.95C218.447 79.3594 218.316 79.8192 218.3 80.2901C218.298 80.4716 218.345 80.6504 218.436 80.8072C218.528 80.964 218.661 81.0929 218.82 81.1801L218.59 81.3901C218.59 81.5001 218.59 81.3901 218.47 81.4801C218.421 81.6147 218.398 81.757 218.4 81.9001C218.401 82.1687 218.445 82.4354 218.53 82.6901C218.66 83.0801 218.83 83.2901 218.79 83.3301Z" fill="#455A64"/>
<path d="M223.82 79.3C223.4 78.7991 223.096 78.2118 222.93 77.58C222.688 76.8938 222.524 76.1827 222.44 75.46C222.391 75.0251 222.368 74.5877 222.37 74.15C222.367 73.8917 222.408 73.6348 222.49 73.39C222.534 73.2331 222.62 73.0909 222.737 72.9783C222.855 72.8657 223.001 72.7869 223.16 72.75L223 73C222.992 72.348 223.118 71.7013 223.37 71.1C223.461 70.8629 223.575 70.6351 223.71 70.42C223.792 70.2759 223.914 70.1581 224.06 70.08C224.151 70.0275 224.255 70.0031 224.36 70.01C224.436 70.0146 224.509 70.0393 224.572 70.0814C224.636 70.1236 224.687 70.1817 224.72 70.25L224.24 70.43C224.099 69.93 224.105 69.3999 224.257 68.9032C224.41 68.4066 224.702 67.9645 225.1 67.63C225.348 67.3514 225.502 67.0014 225.54 66.63C225.631 66.2468 225.832 65.899 226.12 65.63C226.516 65.2535 227.043 65.0456 227.59 65.05C227.96 65.05 228.14 65.17 228.13 65.19C228.12 65.21 227.93 65.19 227.6 65.19C227.126 65.2573 226.689 65.4828 226.36 65.83C226.142 66.0647 225.993 66.3556 225.93 66.67C225.93 66.84 225.86 67.04 225.8 67.26C225.729 67.4935 225.602 67.7063 225.43 67.88C225.1 68.1612 224.859 68.5316 224.735 68.9467C224.611 69.3618 224.609 69.804 224.73 70.22L224.28 70.39C224.38 70.39 224.34 70.32 224.34 70.39C224.34 70.46 224.34 70.47 224.34 70.45C224.278 70.4867 224.227 70.5382 224.19 70.6C224.078 70.7938 223.978 70.9942 223.89 71.2C223.667 71.7426 223.552 72.3234 223.55 72.91V73.15H223.34C223.09 73.15 222.94 73.66 222.94 74.06C222.94 74.46 222.94 74.92 222.94 75.31C223.001 76.0089 223.122 76.7014 223.3 77.38C223.55 78.62 223.88 79.27 223.82 79.3Z" fill="#455A64"/>
<path d="M239.43 57.89C238.866 57.9537 238.312 58.0846 237.78 58.28C236.504 58.9032 235.455 59.9103 234.78 61.16L234.66 61.38L234.43 61.25C234.145 61.0779 233.829 60.9625 233.5 60.91C232.622 60.8002 231.731 60.9755 230.96 61.41C230.304 61.7542 229.689 62.1737 229.13 62.66C228.744 62.9639 228.444 63.3639 228.26 63.82C228.14 64.14 228.16 64.35 228.12 64.35C228.08 64.35 228 64.15 228.12 63.77C228.244 63.2411 228.523 62.7609 228.92 62.39C229.475 61.85 230.097 61.3829 230.77 61C231.627 60.4892 232.632 60.2847 233.62 60.42C234.018 60.4779 234.399 60.6175 234.74 60.83L234.39 60.91C235.111 59.5917 236.267 58.5635 237.66 58C238.212 57.7304 238.849 57.6909 239.43 57.89V57.89Z" fill="#455A64"/>
<path d="M207.15 198.7L189.62 185.17C189.62 185.17 171.4 209.27 168.84 214.65C166.69 219.16 151.37 241.9 146.5 249.09L133.07 259.09L132.45 263.2L129.73 269.69C129.73 269.69 131.56 280.92 133.27 280.84C135.19 280.76 134.86 276.18 134.86 276.18C134.86 276.18 140.16 280.56 141.54 281.94C142.92 283.32 145.82 282.29 144.54 280.45C143.688 279.244 142.745 278.104 141.72 277.04C141.72 277.04 143.85 277.87 144.86 277.17C145.87 276.47 144.71 274.69 144.71 274.69L138.21 272.69V265.85C138.21 265.85 140.43 261.63 141.97 261.85C143.51 262.07 143.92 264.41 143.61 264.85C142.47 266.55 139.97 271.51 139.97 271.51C140.031 271.744 140.144 271.962 140.299 272.148C140.455 272.333 140.65 272.481 140.87 272.582C141.091 272.682 141.331 272.733 141.573 272.729C141.815 272.725 142.053 272.667 142.27 272.56C143.97 271.76 148.75 265.62 148.75 265.62C148.75 265.62 155.43 260.89 156.35 259.45C157.02 258.39 157.28 255.11 157.35 253.45L198.42 214.17L207.15 198.7Z" fill="#AA6550"/>
<path d="M300.44 448.21V449.26C300.44 449.26 330.58 456.48 329.49 464.69L277.49 465.92L278.17 448.6C286 452 291.62 452 300.44 448.21Z" fill="#E0E0E0"/>
<path d="M277.52 465.92L277.59 461.76L328.85 462.11C329.129 462.472 329.33 462.889 329.44 463.333C329.551 463.777 329.567 464.239 329.49 464.69L277.52 465.92Z" fill="#263238"/>
<path d="M302.42 449.69C302.42 449.94 301.2 450.21 300.06 451.17C298.92 452.13 298.39 453.28 298.15 453.17C297.91 453.06 298.15 451.59 299.5 450.45C300.85 449.31 302.45 449.45 302.42 449.69Z" fill="#263238"/>
<path d="M308.11 451.25C308.2 451.49 307.16 452.06 306.44 453.25C305.72 454.44 305.61 455.58 305.35 455.6C305.09 455.62 304.76 454.21 305.69 452.77C306.62 451.33 308.08 451 308.11 451.25Z" fill="#263238"/>
<path d="M312 457.35C311.77 457.43 311.27 456.22 311.74 454.76C312.21 453.3 313.33 452.6 313.46 452.76C313.59 452.92 312.96 453.76 312.58 454.99C312.2 456.22 312.23 457.3 312 457.35Z" fill="#263238"/>
<path d="M277.71 465.4C277.5 465.903 277.457 466.459 277.587 466.988C277.716 467.517 278.012 467.991 278.43 468.34C278.827 468.676 279.326 468.87 279.846 468.89C280.366 468.91 280.878 468.755 281.3 468.45C282.07 467.85 282.56 466.71 283.53 466.68C284.34 466.68 284.9 467.44 285.53 467.99C286.97 469.32 289.64 469.29 290.67 467.62C290.869 467.174 291.128 466.757 291.44 466.38C292.29 465.6 293.67 466.16 294.53 466.93C295.39 467.7 296.19 468.71 297.33 468.82C298.47 468.93 299.67 467.92 300.63 467.06C301.59 466.2 302.98 465.42 304.08 466.06C304.77 466.47 305.08 467.29 305.65 467.83C307.05 469.11 309.36 468.29 310.76 467.01C311.214 466.492 311.777 466.082 312.41 465.81C313.75 465.4 315.02 466.49 316.15 467.33C316.858 467.916 317.699 468.318 318.6 468.5C319.049 468.587 319.513 468.555 319.946 468.408C320.38 468.261 320.767 468.003 321.07 467.66C321.33 467.34 321.48 466.96 321.72 466.66C322.05 466.228 322.511 465.916 323.034 465.769C323.558 465.623 324.114 465.652 324.62 465.85C325.89 466.37 326.89 467.98 328.2 467.58C329.26 467.25 329.48 465.86 329.47 464.75C329.505 464.399 329.421 464.047 329.23 463.75C329.044 463.583 328.821 463.463 328.579 463.402C328.336 463.341 328.083 463.34 327.84 463.4C324.96 463.63 322.08 463.96 319.22 464.4" fill="#263238"/>
<path d="M304 451.42C304 451.42 304.11 451.17 304.42 450.82C304.73 450.47 305.25 450.04 305.81 449.46C306.535 448.791 307.353 448.232 308.24 447.8C308.766 447.512 309.338 447.32 309.93 447.23C310.262 447.187 310.598 447.187 310.93 447.23C311.119 447.241 311.303 447.293 311.47 447.38C311.576 447.436 311.666 447.517 311.732 447.617C311.799 447.716 311.839 447.831 311.85 447.95C311.833 448.299 311.734 448.638 311.56 448.941C311.386 449.243 311.143 449.5 310.85 449.69C310.408 450.079 309.921 450.415 309.4 450.69C308.534 451.168 307.589 451.486 306.61 451.63C305.949 451.735 305.276 451.752 304.61 451.68C304.14 451.62 303.89 451.54 303.9 451.51C304.777 451.477 305.652 451.397 306.52 451.27C307.443 451.076 308.331 450.738 309.15 450.27C309.631 449.981 310.084 449.646 310.5 449.27C310.93 448.91 311.35 448.44 311.31 447.98C311.27 447.52 310.51 447.67 310.01 447.73C309.474 447.813 308.955 447.978 308.47 448.22C307.613 448.617 306.81 449.121 306.08 449.72C305.46 450.29 304.91 450.67 304.57 450.97C304.23 451.27 304 451.44 304 451.42Z" fill="#263238"/>
<path d="M304 451.75C303.746 450.987 303.575 450.199 303.49 449.4C303.291 448.531 303.24 447.635 303.34 446.75C303.425 446.203 303.641 445.685 303.97 445.24C304.149 444.975 304.39 444.759 304.673 444.611C304.956 444.463 305.271 444.387 305.59 444.39C305.776 444.408 305.953 444.477 306.101 444.59C306.25 444.703 306.364 444.856 306.43 445.03C306.525 445.32 306.566 445.625 306.55 445.93C306.541 446.457 306.484 446.983 306.38 447.5C306.18 448.371 305.842 449.205 305.38 449.97C305.015 450.703 304.463 451.327 303.78 451.78C303.71 451.72 304.39 451.08 305.06 449.78C305.445 449.031 305.718 448.229 305.87 447.4C305.963 446.912 306.01 446.417 306.01 445.92C306.01 445.4 305.91 444.92 305.5 444.92C305.27 444.926 305.044 444.987 304.842 445.099C304.64 445.21 304.468 445.368 304.34 445.56C304.059 445.942 303.867 446.383 303.78 446.85C303.663 447.683 303.663 448.527 303.78 449.36C303.94 450.146 304.014 450.948 304 451.75Z" fill="#263238"/>
<path d="M139.19 310.07C138.647 308.517 138.494 306.854 138.743 305.227C138.992 303.6 139.637 302.06 140.62 300.74C141.256 300.089 141.738 299.303 142.03 298.44C142.16 297.82 142.03 297.18 142.12 296.56C142.21 295.94 142.62 295.26 143.24 295.24C143.86 295.22 144.18 295.64 144.68 295.78C145.87 296.12 146.87 294.78 147.28 293.65C147.69 292.52 148.08 291.06 149.28 290.65C150.48 290.24 151.56 290.94 152.59 290.51C153.62 290.08 153.94 288.79 154.22 287.7C154.5 286.61 155.13 285.35 156.22 285.31C156.88 285.31 157.5 285.73 158.22 285.7C159.52 285.63 160 284.02 160.53 282.84C161.3 281.1 163.33 279.69 165.07 280.45C165.404 280.662 165.779 280.802 166.17 280.86C166.91 280.86 167.34 280.05 167.89 279.55C169.21 278.36 171.49 279.09 172.51 280.55C173.53 282.01 173.64 283.9 173.72 285.69" fill="#263238"/>
<path d="M157.56 306.67C154.397 309.463 150.795 311.717 146.9 313.34C145.672 313.982 144.269 314.21 142.9 313.99C142.092 313.698 141.371 313.208 140.801 312.565C140.232 311.922 139.833 311.147 139.64 310.31C138.64 307.01 139.78 303.37 141.74 300.58C143.839 297.904 146.335 295.563 149.14 293.64L162.21 283.64C163.743 282.329 165.493 281.293 167.38 280.58C168.329 280.239 169.35 280.151 170.343 280.327C171.336 280.502 172.266 280.934 173.04 281.58C174.75 283.22 174.88 285.98 174.31 288.31C173.74 290.64 172.6 292.8 172.16 295.15" fill="#E0E0E0"/>
<path d="M172.15 295.19C172.139 295.117 172.139 295.043 172.15 294.97C172.15 294.83 172.21 294.61 172.27 294.34C172.471 293.547 172.715 292.766 173 292C173.464 290.78 173.858 289.535 174.18 288.27C174.61 286.616 174.515 284.869 173.91 283.27C173.522 282.379 172.851 281.64 172 281.17C171.054 280.686 169.988 280.485 168.93 280.59C166.71 280.76 164.64 282.15 162.65 283.69C158.6 286.79 154.15 290.19 149.47 293.75C147.152 295.398 145.005 297.274 143.06 299.35C141.277 301.312 140.088 303.739 139.63 306.35C139.396 307.5 139.426 308.688 139.719 309.825C140.012 310.961 140.559 312.016 141.32 312.91C141.681 313.284 142.12 313.575 142.605 313.762C143.091 313.948 143.611 314.026 144.13 313.99C145.115 313.889 146.075 313.622 146.97 313.2C149.773 312.039 152.43 310.556 154.89 308.78C155.77 308.16 156.42 307.64 156.89 307.29C157.107 307.097 157.338 306.92 157.58 306.76C157.537 306.823 157.487 306.88 157.43 306.93C157.3 307.05 157.14 307.19 156.96 307.37C156.53 307.75 155.89 308.29 155.03 308.95C152.595 310.799 149.942 312.34 147.13 313.54C146.186 313.992 145.171 314.279 144.13 314.39C143.553 314.434 142.974 314.352 142.432 314.15C141.889 313.948 141.398 313.631 140.99 313.22C140.17 312.282 139.576 311.169 139.254 309.966C138.932 308.763 138.889 307.502 139.13 306.28C139.589 303.588 140.806 301.083 142.64 299.06C144.602 296.949 146.777 295.045 149.13 293.38L162.33 283.38C164.33 281.85 166.49 280.38 168.87 280.23C170.006 280.13 171.147 280.355 172.16 280.88C173.084 281.398 173.806 282.212 174.21 283.19C174.83 284.864 174.906 286.69 174.43 288.41C174.082 289.678 173.658 290.924 173.16 292.14C172.78 293.14 172.51 293.94 172.36 294.48C172.304 294.721 172.234 294.958 172.15 295.19V295.19Z" fill="#263238"/>
<path d="M153.07 308.49C151.861 307.974 150.821 307.129 150.07 306.05C149.185 305.072 148.59 303.867 148.35 302.57C148.5 302.51 149.16 304.1 150.48 305.73C151.8 307.36 153.16 308.36 153.07 308.49Z" fill="#263238"/>
<path d="M155.69 305.31C154.61 304.997 153.678 304.309 153.06 303.37C152.306 302.546 151.86 301.486 151.8 300.37C151.95 300.37 152.38 301.71 153.47 303.08C154.56 304.45 155.77 305.18 155.69 305.31Z" fill="#263238"/>
<path d="M148.24 309.58C147.331 309.155 146.551 308.496 145.98 307.67C145.277 306.954 144.785 306.058 144.56 305.08C145.223 305.786 145.832 306.541 146.38 307.34C147.065 308.03 147.688 308.78 148.24 309.58V309.58Z" fill="#263238"/>
<path d="M155.56 302.82C155.874 302.895 156.168 303.038 156.42 303.24C157.163 303.723 157.742 304.421 158.08 305.24C158.311 305.832 158.37 306.476 158.25 307.1C158.221 307.288 158.164 307.47 158.08 307.64C158.043 307.705 157.993 307.761 157.933 307.804C157.872 307.847 157.803 307.876 157.73 307.89C157.591 307.902 157.452 307.863 157.34 307.78C157.026 307.566 156.746 307.307 156.51 307.01C155.51 305.81 155.3 304.12 154.82 302.6C154.57 301.83 154.21 301.09 154 300.3C153.782 299.549 153.782 298.751 154 298C154.14 297.66 154.26 297.2 154.82 297C154.955 296.989 155.089 297.026 155.199 297.105C155.309 297.184 155.387 297.299 155.42 297.43C155.48 297.6 155.52 297.75 155.57 297.91C155.727 298.497 155.834 299.095 155.89 299.7C155.964 300.569 155.917 301.444 155.75 302.3C155.716 302.622 155.621 302.934 155.47 303.22C155.6 302.064 155.617 300.899 155.52 299.74C155.442 299.161 155.319 298.589 155.15 298.03C155.15 297.89 155.06 297.74 155.01 297.59C154.96 297.44 154.91 297.45 154.88 297.45C154.85 297.45 154.54 297.78 154.46 298.09C154.288 298.777 154.315 299.499 154.54 300.17C154.74 300.9 155.1 301.63 155.36 302.44C155.86 304.06 156.07 305.64 156.94 306.73C157.143 306.986 157.378 307.215 157.64 307.41C157.78 307.47 157.64 307.48 157.75 307.41C157.811 307.287 157.855 307.155 157.88 307.02C157.995 306.474 157.96 305.908 157.78 305.38C157.496 304.594 157.002 303.902 156.35 303.38C156.076 303.209 155.812 303.022 155.56 302.82Z" fill="#263238"/>
<path d="M172.52 292.68C172.52 292.68 172.52 292.4 172.52 291.92C172.453 291.248 172.189 290.611 171.76 290.09C171.124 289.318 170.234 288.797 169.25 288.62C168.03 288.412 166.782 288.432 165.57 288.68C164.363 288.998 163.211 289.493 162.15 290.15C161.277 290.676 160.488 291.33 159.81 292.09C159.177 292.792 158.611 293.552 158.12 294.36C158.354 293.409 158.845 292.541 159.54 291.85C160.202 291.015 161.004 290.301 161.91 289.74C163 289.027 164.199 288.497 165.46 288.17C166.747 287.905 168.073 287.905 169.36 288.17C170.436 288.397 171.392 289.009 172.05 289.89C172.5 290.478 172.74 291.2 172.73 291.94C172.69 292.43 172.55 292.69 172.52 292.68Z" fill="#263238"/>
<path d="M172.12 281.22C172.36 282.509 172.285 283.837 171.9 285.09C171.682 286.385 171.158 287.609 170.37 288.66C170.23 288.6 170.92 287.02 171.37 284.97C171.82 282.92 172 281.21 172.12 281.22Z" fill="#263238"/>
<path d="M260.44 314C260.44 314 269.21 344.39 270.27 349.57C270.74 351.85 275.44 371.02 275.44 371.02L278.94 434.87H298.89L303.52 361.87L296.33 313.3C296.33 313.3 269.4 301.82 260.44 314Z" fill="#AA6550"/>
<path d="M278.74 449.51L276.53 400.76L302.38 399.34L299.49 449.77C291.46 452.59 286.73 452.39 278.74 449.51Z" fill="#226F54"/>
<path d="M301.85 406.64C301.85 406.78 296.19 406.9 289.21 406.9C282.23 406.9 276.56 406.78 276.56 406.64C276.56 406.5 282.22 406.38 289.21 406.38C296.2 406.38 301.85 406.49 301.85 406.64Z" fill="#F5F5F5"/>
<path d="M301.85 410.52C301.85 410.66 296.19 410.78 289.21 410.78C282.23 410.78 276.56 410.66 276.56 410.52C276.56 410.38 282.22 410.26 289.21 410.26C296.2 410.26 301.85 410.38 301.85 410.52Z" fill="#F5F5F5"/>
<path d="M211.34 236L182.64 317.81C182.64 317.81 197.28 331.81 207.83 329.38C218.38 326.95 220.42 328.02 224.16 326.66C227.9 325.3 230.39 318.05 233.46 312.6C236.53 307.15 244.35 293.32 244.35 293.32L257.1 326.97C267.35 324.22 280.02 325.25 298.53 320.78C298.53 320.78 289.84 278.33 288.14 271.87C286.44 265.41 284.57 244.87 284.57 244.87C284.57 244.87 217.23 231.4 211.34 236Z" fill="#263238"/>
<path d="M255.08 280.11C254.835 280.447 254.557 280.759 254.25 281.04C253.69 281.62 252.89 282.45 251.93 283.51C249.441 286.274 247.129 289.193 245.01 292.25C242.897 295.315 240.948 298.489 239.17 301.76L237.57 304.76C237.394 305.139 237.183 305.501 236.94 305.84C237.049 305.435 237.2 305.043 237.39 304.67C237.7 303.93 238.2 302.88 238.84 301.6C240.535 298.265 242.453 295.047 244.58 291.97C246.705 288.883 249.076 285.974 251.67 283.27C252.67 282.27 253.5 281.44 254.11 280.91C254.398 280.603 254.724 280.334 255.08 280.11V280.11Z" fill="#455A64"/>
<path d="M275.29 259.68C274.521 260.167 273.69 260.551 272.82 260.82C271.888 261.165 270.918 261.393 269.93 261.5C268.694 261.629 267.445 261.457 266.29 261C264.216 260.144 262.488 258.62 261.38 256.67C261.038 256.098 260.756 255.491 260.54 254.86C260.444 254.632 260.389 254.388 260.38 254.14C260.47 254.14 260.78 255.14 261.69 256.48C262.843 258.269 264.514 259.665 266.48 260.48C268.495 261.198 270.695 261.198 272.71 260.48C273.552 260.158 274.414 259.891 275.29 259.68Z" fill="#455A64"/>
<path d="M275.16 275.62C274.82 275.616 274.483 275.558 274.16 275.45C273.26 275.211 272.388 274.876 271.56 274.45C268.834 273.007 266.51 270.907 264.8 268.34C263.109 265.774 261.827 262.96 261 260C260.68 258.88 260.46 258 260.32 257.32C260.222 256.996 260.175 256.659 260.18 256.32C260.26 256.32 260.62 257.7 261.36 259.9C262.272 262.774 263.575 265.51 265.23 268.03C266.903 270.528 269.131 272.606 271.74 274.1C272.846 274.68 273.988 275.188 275.16 275.62V275.62Z" fill="#455A64"/>
<path d="M218 327.66C218 327.66 201.81 359.49 193.76 361.32C181.76 364.06 177.3 355.53 176.08 354.32C174.86 353.11 156.6 299.89 156.6 299.89C156.6 299.89 159.1 289.96 163.7 289.65C168.3 289.34 171.7 290.52 172.32 292.06C172.94 293.6 184.73 311.8 184.73 311.8L182.63 317.8L218 327.66Z" fill="#AA6550"/>
<path d="M187.67 318.85C187.571 319.199 187.43 319.535 187.25 319.85C186.95 320.5 186.5 321.43 185.93 322.57C184.78 324.85 183.15 327.98 181.06 331.28C180.01 332.757 179.074 334.311 178.26 335.93C177.743 337.304 177.534 338.776 177.65 340.24C177.83 342.76 178.2 344.31 178.1 344.32C177.946 343.983 177.838 343.626 177.78 343.26C177.55 342.272 177.383 341.27 177.28 340.26C177.11 338.739 177.291 337.2 177.81 335.76C178.606 334.098 179.546 332.508 180.62 331.01C182.69 327.73 184.37 324.63 185.62 322.4L187.09 319.76C187.243 319.433 187.438 319.127 187.67 318.85V318.85Z" fill="#723C31"/>
<path d="M166 326.87C166 326.87 166.49 313.48 184.21 310.87L171.74 291.05C171.74 291.05 165.05 287.24 161.24 290.5C157.43 293.76 156.64 299.87 156.64 299.87L166 326.87Z" fill="#226F54"/>
<path d="M182.75 307.88C182.75 307.97 181.42 307.79 179.31 307.96C176.562 308.175 173.892 308.977 171.48 310.31C169.066 311.65 167.008 313.55 165.48 315.85C164.31 317.62 163.9 318.85 163.81 318.85C163.84 318.539 163.922 318.235 164.05 317.95C164.346 317.15 164.718 316.38 165.16 315.65C166.632 313.236 168.698 311.239 171.16 309.85C173.636 308.475 176.4 307.701 179.23 307.59C180.078 307.553 180.928 307.586 181.77 307.69C182.105 307.694 182.437 307.758 182.75 307.88Z" fill="#F5F5F5"/>
<path d="M181.06 305.48C181.06 305.58 179.79 305.17 177.71 305.16C175 305.177 172.339 305.886 169.98 307.22C167.624 308.564 165.533 310.326 163.81 312.42C163.093 313.286 162.525 314.267 162.13 315.32C162.244 314.157 162.731 313.062 163.52 312.2C165.197 309.985 167.311 308.137 169.73 306.77C172.16 305.375 174.93 304.683 177.73 304.77C178.567 304.806 179.399 304.93 180.21 305.14C180.512 305.199 180.801 305.314 181.06 305.48V305.48Z" fill="#F5F5F5"/>
<path d="M185.61 188.46C185.61 187.46 202.43 148.55 204.08 145.91C205.73 143.27 224.53 128.76 224.53 128.76L230.08 125.95L242.68 131.38C244.125 132.014 245.682 132.353 247.26 132.38C250.53 132.38 253.69 131.09 255.04 128.1L254.92 124.83L261.92 122.02L266.54 121.3L277.54 116.3C277.54 116.3 290.88 125.64 289.89 136.53L280.2 149C280.2 149 282.78 176.48 282.45 189.68C282.12 202.88 284.57 244.92 284.57 244.92C284.57 244.92 272.36 248.92 263.46 249.21C254.56 249.5 246.32 241.45 230.46 238.48C214.6 235.51 210.14 240 210.14 240L217.6 214.84L218.26 202.31L216.61 188.78L209 206.28L182.61 193.41L185.61 188.46Z" fill="#226F54"/>
<path d="M218.46 157.51C217.91 156.877 217.402 156.209 216.94 155.51C215.746 153.93 214.45 152.431 213.06 151.02C211.702 149.584 210.19 148.303 208.55 147.2C207.84 146.807 207.075 146.523 206.28 146.36C207.132 146.225 208.003 146.407 208.73 146.87C210.463 147.908 212.044 149.18 213.43 150.65C214.845 152.075 216.121 153.632 217.24 155.3C217.753 155.973 218.164 156.717 218.46 157.51V157.51Z" fill="#263238"/>
<path d="M273.42 182C273.216 182.466 272.968 182.911 272.68 183.33C272.16 184.15 271.37 185.33 270.29 186.71C267.424 190.256 264.185 193.485 260.63 196.34C256.48 199.66 253.18 203.19 250.42 205.34C249.356 206.223 248.229 207.028 247.05 207.75C246.727 207.955 246.394 208.142 246.05 208.31C245.938 208.381 245.817 208.434 245.69 208.47C246.077 208.143 246.488 207.845 246.92 207.58C248.045 206.799 249.126 205.958 250.16 205.06C252.83 202.84 256.1 199.26 260.28 195.92C263.808 193.08 267.056 189.908 269.98 186.45C271.09 185.12 271.92 183.98 272.49 183.19C272.771 182.772 273.082 182.374 273.42 182V182Z" fill="#263238"/>
<path d="M218 200L278 145.57C278 145.57 280.41 147.84 281.31 162.57L281.81 169.97L227.81 210.46C227.81 210.46 222.81 209.18 220 212.61C218.38 214.551 217.12 216.766 216.28 219.15L217.59 214.26L218.21 202.34L218 200Z" fill="white"/>
<path d="M245.57 219.05C245.249 219.025 244.933 218.957 244.63 218.85C244.04 218.7 243.19 218.45 242.15 218.13C239.43 217.306 236.759 216.327 234.15 215.2C231.523 214.071 229.031 212.652 226.72 210.97C226.02 210.458 225.352 209.904 224.72 209.31C224.471 209.109 224.249 208.877 224.06 208.62C224.12 208.55 225.14 209.44 226.93 210.62C229.277 212.196 231.764 213.551 234.36 214.67C237.36 216 240.24 217 242.29 217.73C243.412 218.094 244.508 218.535 245.57 219.05V219.05Z" fill="#263238"/>
<path d="M280.87 157.78C280.77 157.78 280.65 155.96 280.06 153.09C279.243 149.353 278.088 145.698 276.61 142.17C275.146 138.632 273.449 135.194 271.53 131.88C270.79 130.62 270.17 129.6 269.73 128.88C269.478 128.537 269.264 128.168 269.09 127.78C269.397 128.081 269.669 128.417 269.9 128.78C270.39 129.45 271.06 130.43 271.9 131.69C273.906 134.981 275.642 138.429 277.09 142C278.583 145.54 279.699 149.227 280.42 153C280.629 154.148 280.772 155.306 280.85 156.47C280.908 156.904 280.915 157.344 280.87 157.78Z" fill="#263238"/>
<path d="M192.36 172.12L217.83 185.18L222.07 172.75L198.73 157.51L192.36 172.12Z" fill="white"/>
<path d="M224.06 166.15C224.055 166.489 224.001 166.826 223.9 167.15C223.76 167.77 223.54 168.65 223.23 169.73C222.63 171.9 221.67 174.86 220.56 178.1L217.68 186.38C217.3 187.44 216.96 188.29 216.68 188.86C216.571 189.168 216.416 189.458 216.22 189.72C216.15 189.72 216.66 188.4 217.32 186.26C217.98 184.12 218.94 181.16 220.06 177.93C221.18 174.7 222.18 171.76 222.87 169.63C223.198 168.448 223.595 167.286 224.06 166.15V166.15Z" fill="#263238"/>
<path d="M210.61 202.62C210.56 202.75 204.61 200.25 197.26 197.02C189.91 193.79 184.06 191.08 184.12 190.95C184.18 190.82 190.12 193.32 197.47 196.55C204.82 199.78 210.67 202.49 210.61 202.62Z" fill="#FAFAFA"/>
<path d="M267.19 159.31L268.28 161.52L261.59 164.83L260.73 163.08L262.24 158.03C262.384 157.716 262.458 157.375 262.458 157.03C262.458 156.685 262.384 156.344 262.24 156.03C262.181 155.88 262.09 155.745 261.971 155.636C261.853 155.527 261.711 155.446 261.557 155.4C261.403 155.354 261.24 155.343 261.081 155.369C260.922 155.395 260.771 155.457 260.64 155.55C260.32 155.709 260.051 155.954 259.864 156.258C259.677 156.562 259.578 156.913 259.58 157.27L257.2 157C257.217 156.189 257.465 155.4 257.915 154.725C258.365 154.05 258.998 153.517 259.74 153.19C261.74 152.19 263.66 152.71 264.57 154.54C264.857 155.141 265.013 155.796 265.027 156.461C265.04 157.127 264.912 157.788 264.65 158.4L263.88 160.92L267.19 159.31Z" fill="#263238"/>
<path d="M266.54 156.24C264.93 152.97 265.6 150.31 267.8 149.24C270 148.17 272.5 149.24 274.11 152.52C275.72 155.8 275.06 158.44 272.87 159.52C270.68 160.6 268.15 159.5 266.54 156.24ZM271.67 153.7C270.67 151.63 269.67 151.13 268.93 151.51C268.19 151.89 268 153 269 155C270 157 271 157.57 271.76 157.19C272.52 156.81 272.7 155.78 271.67 153.7V153.7Z" fill="#263238"/>
<path d="M244 164.81C243.424 165.265 242.788 165.638 242.11 165.92C238.937 167.465 235.575 168.588 232.11 169.26C231.397 169.436 230.664 169.52 229.93 169.51C229.93 169.35 233.18 168.73 237.08 167.42C240.98 166.11 243.94 164.67 244 164.81Z" fill="#FAFAFA"/>
<path d="M257 124C257 124 257.07 124.12 257.15 124.36C257.265 124.715 257.348 125.08 257.4 125.45C257.579 126.826 257.396 128.226 256.87 129.51C256.098 131.446 254.648 133.035 252.79 133.98C250.479 134.998 247.924 135.328 245.43 134.93C242.956 134.626 240.543 133.952 238.27 132.93C236.422 132.115 234.632 131.176 232.91 130.12C231.44 129.23 230.29 128.46 229.49 127.91C229.064 127.654 228.666 127.356 228.3 127.02C228.752 127.224 229.187 127.465 229.6 127.74C230.43 128.23 231.6 128.96 233.1 129.81C234.832 130.809 236.622 131.704 238.46 132.49C240.69 133.461 243.047 134.111 245.46 134.42C247.857 134.801 250.313 134.503 252.55 133.56C254.03 132.815 255.257 131.65 256.079 130.211C256.901 128.772 257.28 127.123 257.17 125.47C257.16 124.54 257 124 257 124Z" fill="#FAFAFA"/>
<path d="M288.44 138.72C288.34 138.72 288.31 137.26 287.75 134.99C286.98 132.044 285.759 129.234 284.13 126.66C282.483 124.089 280.662 121.633 278.68 119.31L276.91 117.16C276.681 116.905 276.48 116.627 276.31 116.33C276.31 116.33 276.61 116.55 277.07 117.02C277.53 117.49 278.18 118.19 278.96 119.02C281.04 121.292 282.917 123.741 284.57 126.34C286.233 128.954 287.431 131.837 288.11 134.86C288.298 135.777 288.418 136.706 288.47 137.64C288.509 138 288.499 138.363 288.44 138.72Z" fill="#FAFAFA"/>
<g opacity="0.3">
<path d="M222.77 170.09C221.06 176.39 218.51 182.83 216.63 188.9C217.4 189.02 217.45 189.47 218.04 188.96C219.66 187.52 221.43 185.96 222.24 183.96C222.684 182.67 222.936 181.323 222.99 179.96C223.28 176.62 223.56 173.28 222.77 170.09Z" fill="black"/>
</g>
<g opacity="0.3">
<path d="M227.13 211C232.01 213.77 237.76 214.59 243.37 214.67C248.98 214.75 254.58 214.15 260.18 214.34C262.787 214.294 265.371 214.823 267.75 215.89C268.918 216.438 269.924 217.28 270.669 218.333C271.414 219.387 271.873 220.616 272 221.9C272.034 222.195 271.971 222.494 271.82 222.75C271.68 222.9 271.511 223.02 271.324 223.104C271.137 223.188 270.935 223.235 270.73 223.24C267.701 223.578 264.646 223.612 261.61 223.34C258.75 223.249 255.903 222.914 253.1 222.34C246.59 220.85 240.87 216.84 234.36 215.34" fill="black"/>
</g>
<path d="M325.51 431C325.51 431.15 324.8 431.48 323.89 431.91C322.98 432.34 322.24 432.7 322.16 432.58C322.08 432.46 322.72 431.89 323.67 431.44C324.62 430.99 325.47 430.88 325.51 431Z" fill="#263238"/>
<path d="M348.3 469.89C363.654 469.89 376.1 457.444 376.1 442.09C376.1 426.737 363.654 414.29 348.3 414.29C332.946 414.29 320.5 426.737 320.5 442.09C320.5 457.444 332.946 469.89 348.3 469.89Z" fill="white"/>
<path d="M325.43 430.85L329.56 437.42L339.18 430.85V421.98H332.31L325.43 430.85Z" fill="#263238"/>
<path d="M349.12 438.18V449.64L358.9 452.7L365.62 443.84L359.51 434.82L349.12 438.18Z" fill="#263238"/>
<path d="M352.48 414.61V418.61L361.48 424.61L368.65 423.15C368.6 422.57 360 414.82 352.48 414.61Z" fill="#263238"/>
<path d="M328.88 450.13L325.43 454.63L333.21 463.98H339.96L339.18 455.15L328.88 450.13Z" fill="#263238"/>
<path d="M350 449.15C348.379 450.542 346.616 451.759 344.74 452.78C342.951 453.962 341.001 454.878 338.95 455.5C338.89 455.37 341.46 454.15 344.48 452.33C346.26 451.168 348.102 450.107 350 449.15V449.15Z" fill="#263238"/>
<path d="M349.61 438.46C348.928 438.416 348.267 438.21 347.68 437.86C346.219 437.145 344.838 436.277 343.56 435.27C342.27 434.293 341.041 433.238 339.88 432.11C339.368 431.67 338.914 431.166 338.53 430.61C338.64 430.49 340.88 432.61 343.87 434.86C345.144 435.839 346.48 436.734 347.87 437.54C348.91 438.14 349.63 438.39 349.61 438.46Z" fill="#263238"/>
<path d="M329.06 450.79C328.949 450.103 328.912 449.405 328.95 448.71C328.95 447.43 328.95 445.71 328.95 443.71C328.872 441.342 329.013 438.972 329.37 436.63C329.487 437.317 329.524 438.015 329.48 438.71C329.48 439.99 329.48 441.76 329.48 443.71C329.562 446.078 329.421 448.448 329.06 450.79Z" fill="#263238"/>
<path d="M359.51 434.82C359.692 432.979 359.996 431.151 360.42 429.35C360.66 427.521 360.993 425.705 361.42 423.91C361.51 425.768 361.342 427.629 360.92 429.44C360.67 431.284 360.197 433.091 359.51 434.82V434.82Z" fill="#263238"/>
<path d="M352.48 418.62C350.212 419.337 347.909 419.937 345.58 420.42C343.68 420.91 341.97 421.42 340.74 421.75C340.092 421.997 339.422 422.184 338.74 422.31C340.861 421.196 343.131 420.391 345.48 419.92C347.39 419.44 349.15 419.09 350.42 418.86C351.093 418.692 351.786 418.611 352.48 418.62V418.62Z" fill="#263238"/>
<path d="M376.1 443.37C374.327 443.656 372.536 443.81 370.74 443.83C368.946 444.011 367.138 443.987 365.35 443.76C367.123 443.473 368.914 443.323 370.71 443.31C372.503 443.123 374.312 443.143 376.1 443.37V443.37Z" fill="#263238"/>
<path d="M359.73 463.44C359.36 461.609 359.113 459.754 358.99 457.89C358.689 456.036 358.611 454.152 358.76 452.28C359.13 454.111 359.377 455.966 359.5 457.83C359.801 459.684 359.879 461.568 359.73 463.44Z" fill="#263238"/>
<path d="M351.92 467.44C349.796 467.478 347.684 467.122 345.69 466.39C343.638 465.855 341.693 464.972 339.94 463.78C340.01 463.65 342.54 464.89 345.85 465.89C349.16 466.89 351.93 467.3 351.92 467.44Z" fill="#263238"/>
<path d="M351.65 469.69V467.69L359.4 462.82L366.4 463.23C366.5 463.37 357.81 470.1 351.65 469.69Z" fill="#263238"/>
<path d="M332 419.6C332.14 419.6 332.33 420.14 332.45 420.86C332.57 421.58 332.45 422.22 332.33 422.21C332.21 422.2 332.06 421.65 331.94 420.94C331.82 420.23 331.83 419.61 332 419.6Z" fill="#263238"/>
<path d="M325.9 454.73C325.9 454.87 325.27 454.86 324.56 454.73C323.85 454.6 323.34 454.44 323.32 454.3C323.3 454.16 323.96 454.04 324.67 454.22C325.38 454.4 325.93 454.59 325.9 454.73Z" fill="#263238"/>
<path d="M333 465.32C332.86 465.32 332.81 464.92 332.88 464.49C332.95 464.06 333.14 463.74 333.28 463.76C333.42 463.78 333.47 464.16 333.4 464.59C333.33 465.02 333.1 465.34 333 465.32Z" fill="#263238"/>
</svg>
