<svg width="57" height="56" viewBox="0 0 57 56" fill="none" xmlns="http://www.w3.org/2000/svg">
<path d="M5.51 17C5.51 17.15 4.80001 17.48 3.89001 17.91C2.98001 18.34 2.24 18.7 2.16 18.58C2.08 18.46 2.72001 17.89 3.67001 17.44C4.62001 16.99 5.47 16.88 5.51 17Z" fill="#263238"/>
<path d="M28.3 55.89C43.6535 55.89 56.1 43.4435 56.1 28.09C56.1 12.7365 43.6535 0.290039 28.3 0.290039C12.9465 0.290039 0.5 12.7365 0.5 28.09C0.5 43.4435 12.9465 55.89 28.3 55.89Z" fill="white"/>
<path d="M5.42999 16.85L9.56 23.42L19.18 16.85V7.98004H12.31L5.42999 16.85Z" fill="#263238"/>
<path d="M29.12 24.1801V35.6401L38.9 38.7001L45.62 29.8401L39.51 20.8201L29.12 24.1801Z" fill="#263238"/>
<path d="M32.48 0.609985V4.60999L41.48 10.61L48.65 9.14999C48.6 8.56999 40 0.819985 32.48 0.609985Z" fill="#263238"/>
<path d="M8.88 36.13L5.42999 40.63L13.21 49.98H19.96L19.18 41.15L8.88 36.13Z" fill="#263238"/>
<path d="M30 35.15C28.3794 36.5419 26.6163 37.7586 24.74 38.78C22.9515 39.9616 21.0012 40.8778 18.95 41.5C18.89 41.37 21.46 40.15 24.48 38.33C26.2596 37.1684 28.1024 36.1068 30 35.15V35.15Z" fill="#263238"/>
<path d="M29.61 24.46C28.9282 24.4158 28.2667 24.2102 27.68 23.86C26.2187 23.1452 24.8376 22.277 23.56 21.27C22.2696 20.2932 21.0407 19.2379 19.88 18.11C19.3677 17.6698 18.914 17.1657 18.53 16.61C18.64 16.49 20.88 18.61 23.87 20.86C25.1439 21.8391 26.48 22.7343 27.87 23.54C28.91 24.14 29.63 24.39 29.61 24.46Z" fill="#263238"/>
<path d="M9.05999 36.79C8.94908 36.1026 8.91222 35.4053 8.95 34.71C8.95 33.43 8.95 31.71 8.95 29.71C8.87198 27.3421 9.01256 24.9721 9.36999 22.63C9.48703 23.3167 9.52396 24.0147 9.48 24.71C9.48 25.99 9.48 27.76 9.48 29.71C9.56185 32.0779 9.42122 34.4483 9.05999 36.79Z" fill="#263238"/>
<path d="M39.51 20.82C39.6916 18.9785 39.9956 17.1511 40.42 15.35C40.6596 13.5207 40.9933 11.705 41.42 9.91003C41.5099 11.7676 41.3416 13.6287 40.92 15.44C40.67 17.2839 40.1966 19.0906 39.51 20.82V20.82Z" fill="#263238"/>
<path d="M32.48 4.62007C30.212 5.33661 27.909 5.9374 25.58 6.42009C23.68 6.91009 21.97 7.42007 20.74 7.75007C20.0916 7.99668 19.4222 8.18411 18.74 8.31007C20.8611 7.1958 23.1308 6.39098 25.48 5.92009C27.39 5.44009 29.15 5.09006 30.42 4.86006C31.0935 4.69168 31.7859 4.61102 32.48 4.62007V4.62007Z" fill="#263238"/>
<path d="M56.1 29.37C54.3272 29.6563 52.5356 29.81 50.74 29.83C48.9465 30.0106 47.1382 29.9872 45.35 29.7601C47.1225 29.473 48.9144 29.3226 50.71 29.31C52.503 29.1233 54.3116 29.1435 56.1 29.37V29.37Z" fill="#263238"/>
<path d="M39.73 49.44C39.3599 47.6086 39.1126 45.7545 38.99 43.89C38.6886 42.036 38.6114 40.1525 38.76 38.28C39.1301 40.1115 39.3773 41.9656 39.5 43.83C39.8014 45.684 39.8786 47.5676 39.73 49.44Z" fill="#263238"/>
<path d="M31.92 53.4401C29.7963 53.478 27.684 53.122 25.69 52.3901C23.6383 51.8551 21.6934 50.9723 19.94 49.7801C20.01 49.6501 22.54 50.8901 25.85 51.8901C29.16 52.8901 31.93 53.3001 31.92 53.4401Z" fill="#263238"/>
<path d="M31.65 55.6901V53.6901L39.4 48.8201L46.4 49.2301C46.5 49.3701 37.81 56.1001 31.65 55.6901Z" fill="#263238"/>
<path d="M12 5.60004C12.14 5.60004 12.33 6.14002 12.45 6.86002C12.57 7.58002 12.45 8.22002 12.33 8.21002C12.21 8.20002 12.06 7.65003 11.94 6.94003C11.82 6.23003 11.83 5.61004 12 5.60004Z" fill="#263238"/>
<path d="M5.89998 40.73C5.89998 40.87 5.26998 40.86 4.55998 40.73C3.84998 40.6 3.33999 40.44 3.31999 40.3C3.29999 40.16 3.96 40.04 4.67 40.22C5.38 40.4 5.92998 40.59 5.89998 40.73Z" fill="#263238"/>
<path d="M13 51.32C12.86 51.32 12.81 50.92 12.88 50.49C12.95 50.06 13.14 49.74 13.28 49.76C13.42 49.78 13.47 50.16 13.4 50.59C13.33 51.02 13.1 51.34 13 51.32Z" fill="#263238"/>
</svg>
